<svg version="1.1" id="Layer_1" xmlns="http://www.w3.org/2000/svg" x="0" y="0" viewBox="0 0 771 491.9" xml:space="preserve"><style>.st1{fill:none;stroke:#f44862;stroke-width:3;stroke-miterlimit:10}.st2{fill:#f44862}.st3{enable-background:new}.st4{fill:#fff}</style><path id="Path_7211" d="M42.9 71c-1.2 3.7-5.4-21.3 2.2-17.5 20-4 20.8-18.3 38.9 2.2 6.3 7.5 14.1 5.9 17.3 15.7 1.3 5.4 7.9-4.2 8.6.1 2.6 2.2 9.6-5.9 11.7.3 6.5-3.1 3.9-6.3 4.6 4.1 1.1 1.6 3.8-4.2 4.1-1.6-2.3 7.5.9-1 5 2.8 4.8 8.8 16.9 6.5 7.7 14.5 2.8 4.1 10.9-4.1 12.2 7.9.7 1 .1-5.8 8.2-7.9-.5-.2-8 2.4-4.3-1.3 8.2-5.5 3.4 16 21.5 5.3-6.8-6.2 3-7.1 6.7-5-2.1 1.7-.6 7.3-6.1 5.7l-.2-.2c3.2 2.8-.5 3 1 7 1-4.2 4.6-3.5 6.9-7.9-1.4 0-1.7-2.1 1.3-3.2-6.2-1.8-3.5-10.5 1.7-12.8 3.5-4.8 5.2-22.1 16.5-13.7.1 9.7-15.8 5-12.1 15.4-.6 8.6.6 5.9-3 10.1 5.5 2.3 1.5 1.1 2.1 6.7 1.2-.2.7-3.4 3.2-3.7 3.1 5.3-3 5.2.4 10.5 1.2 1.7 1.3-6.5 2.7-2.8.5 0 .9-1.4 3.5-3.5.1-.5 1.1-.1 1.2-2 .1-3 1.2-3.4 2.9-3.8 1.9 1.1 6.5 1.2 1.9 8.6.7 5.2-2.8 12.5-10 9.9-2.2-3-1.9.7-3.1 2 .5.4 2.4-1.2 2.8.4-.5.6-1.9 1.3-.2 2 2.5 2 3.2 5.1 5.5 7.7 1.1 1.9-2.5 3.7-4.2.6 0-.6-1-1.6-1.4-1.3-3.7 4.6-10.9 5.1-3.3-9.1-4.4 4.7-7 8.6-14.3 9.3 1 3.9-14.1 8.9-14.9 19.2-.5 2 1.8 1.3 2.6 2.3.2 2.3.9 5-.5 7.1 3.9-2.7 9.4 4.7 15.7 9.3.7.9 6.1-1.3 4.8 3-4.9 8.1 5.2 20.3 5.4 6.9-.3-11.4 6.1-7.3 9.2-12.6.8-6.6-.9-5.7-1.7-11 5.4-1.7 2.6-16.7 7.9-16.3 3.2 3.2 7.1-2.8 10.7 7 5.5 1.5 2.9 2.9 2 8.9 5.9 14 11.6-14.3 13.2 1.5 3.4 7.7-1.4 12.8 7.3 17.5.8-.3 3.4 1.2.4 2.6.1-.3 2.7.2 2.4 2 .2-.8 3.5 1.4 1.9 3.2-7 15.9-25.2 1-33.9 14.6 4.6-4.2 17-3.2 8.5 1.5 2.5.1-.3 6.5 4.9 7.2 2.5 2.3 4.2-4.2 6.5-2.6 1.9 5.2-1 2.1-2.8 4.8-4.1-1-7.9 6.9-12.7 3.6 1.2-3.7 5.3-5.7-.7-3.2-2.9 3.4-9.8-.3-11 8.6 4.6 4.6-8.8 1.7-4.7 4-4.7-1.3-9.1 14-10.8 9 .7 19-22.7 10.2-14.3 33.5-1.2 8-4.9 3.1-6.7-2.9-1.3-1.9 2.4-2.2-2-6.5-1.1-.8-1.9 1.1-3.8 0-10.7-6.2-8 5.4-19.1.5-14.5-5.8-21.6 41.3 1.5 30.3 2.1-4.2 7.3-11.5 11.9-6-8.9 20.9-7.2 10.5 6.4 15.4h.2s-.1 0-.1-.1c4.3 3.1-4.8 15 5 16.8 3.7.5 6.1-3.7 11.7 1.7-.1 0 0 .2.1.3-1.2-2.7 19.1-16.8 13.4-7.2 1.7 1.9 4.6-5.8 9 1 4.9 3.2 11.3-2 14.6.8-3 .2 10.5 8.4 13.2 11.4.8-2.5 25.1 6.3 14.8 16.3 5.5 3.3 63.3 4.7 32 33.1-1.6-.6 1.1 12.3-3.9 20.4-1 8.9-14.7 3.9-19.5 15.4 1.1 6.2-1.9 9.7-4.4 13-4.5-.5-4.7 18.5-17.2 11.3 11 12.1-3.3 13.2-8 14.4 1 8.4-1.5 6.5-6.5 5.9 4.3 9.4 5.7-2.3.2 13.7-11.4 8.1 10.2 1-2.8 17.6-3.8 3.7 4.3 7-.9 8.6 7.2 4.4 15 9.7 3.1 11.7-.4 2.4-1.1-4.2-2.7-.3-1.3 0-4.4-6.1-4.8-3.7-2.2.5-10.9-7.4-2.3-3-11.2-10.1-.9-2.2-5.2-10 .3 1.7-1.7 6.5-1.7-.6-2.3 0 .1-2.6-.1 0 .4-1.1-6.6-9.3-1-9 .2-5.7-7.5-3.2-.7-8.1.8 5.9 4.5-14.8.2-10.8 3.1 8.1-6.1 2-1-1.8-2.4-4.5-2.6-15.7-.2-22.7 3-62 1.8-29.8-25.7-76.2-6.6-3.3-1.3-7.3-.4-11.2-8.4-3.1 10.6-13.1 6.8-24.2-1.6-3.1-4.2-10.1-6.3-3.2-.4 2.9-3.1.7-4.2-.5-2.5-1.5-3.4 1-7.1-4-.8-.3-2.7.3-3.2-1.9-1.8-9.5-11.4-6.6-15.6-10.5-11.9-10.6-7.6 3.1-28.2-11.1-3.5-2.9-5.3-2.5-3.6-8.4-.4-6.3-8.7-9.8-8.4-14.2-.9-2.2-6-6.7-6.9-10.9-1-7.6-5.9-7-3.7-.1 1.3 2.3 12.3 20.7 7.4 19.9-9.2-10.8.2-2.2-9.6-14.5 4-1.2-1.5-2.2-4.9-17.7-3-4-6.3-1-7.1-6.6-9.3-20.6 1-27.9 2.3-48.1 0-.1.5-2.4 1.9-1.2 9.5 3.1-2.2-10.4-4.6-13.2 1.9-3.5-3.7-9.2.4-10-1-2.3-3.7 2.7-3.1-3-.4-.9 2.9-2.7 1.1-4.4-14.9-19.2-.5-14.1-5.7-19.6.2 6.1-4.5-3.4-5.3-5.3-.9-3.2-12.4-4.2-12.1-10.6-.1 0-1.9 1.4-2.7-.4-2.8-1.1 2.1 3.6-3.7 5.3-13.8 8-7.8-5.8 0-6-10.5-.2-23.6 22-38 23.8-1.6-2.1-7.9 4.5-11.1 1.6 5.5-3.9 39.6-15.8 20.4-20.3-4.8 4.1-1.2-4-.8-7.4-11.3 6.6-.5-24.6 6.3-17.6 2.1 1.7 2.5-3.3 4-1.8 4.5 3.4 4-4.2 6.6-6.2-27.9 6.1.7-22.4-.4-9.9 2.6 2.7 4.1 2.1 6.6.2m175.4 408.6c0 .1-.1.1 0 .1 0 0 .3-.2 0-.1zm17.9-60.2c.1.4.1 0-.1-.2 0 .2 0 .2.1.2zm-21.5-230.3c-.7.3-1.7.6-2.1 1.2.3-.8 1.7-.8 2.1-1.4v.2zm.1-.1l1-1c-.8.1-.9.1-1 1zm1.1-1.3c-.1 0-.1 0-.1.2-.1-.2.2.2.1-.2zm32-18l-.1.2.1-.2zm-77.6-19.5zm27.2-37.8l.6-.6-.6.6zm-87.3-38.5l-.1.2.1-.2zm-.7-3l.1-.2-.1.2zm-35.6-24c.2 0 .3 0 .3-.2l-.3.2zm.5-.2c.1 0 .1 0 .6-.3.5 0 .3 0-.6.3zm139.1 439.8h.5c-.1-.1 0 .4-.5 0zm.5 0c.1 0 0-.1 0 0 .1 0 .1 0 0 0zM730.9 464c-3.6-1.1-3.6-17.2 2.1-10.1 2.7.6 7.3-3.5 4 4.5-3.4 5.3-.4 2.8-6.1 5.6zm4.2-18.3c-3.1-6.9-5 1.6-9-3.2-4.6-.4-5.2-5.5-5.1-11.3-2.3 1.4-1.2-1.2-1.7-3.7-.7 1.6-4.1 3.5-3.2 1 .5.1 3.9-5.1 3.3-6.2-12.7 13.7-1.8-6.8-18.8-5.9-9 .5-17 7.2-27.3 7-19.3 12.1-5.6-15.2-11.4-23.7.2-.2.7-1.2.6-1.2-.6-10.7 2.5-15 16.1-18.3 10.8.2 6-12.8 12.4-7.7-1.2-3.3 2.1-.6 2.1-4 6.3-9 8.3-1.9 13.2-2.5-.3-7.5 10.9-6.5 7.5-9.4 2.8-.3 8.5 1.9 12.7 2.5-6.9 6.7-.6 12.1 4.3 12.8-.2-.2.5-.2.1 0 6 7.8 5.4-4.3 9.2-15.9 3.8-.7 2.4 9.6 7 10 1.3 6.4.7 12.9 7.2 15.7 1.5 2.9 6.7 16.4 10 14.6.4 16.1-8 26.3-16.2 39.4-.1 6.7-7.6 6-13 10zM538.7 86.2c4.7-6.7-6.9-6.1-9.6-12.7-3.1-3.2 1.8-4.6 4.8-5.7 1.9-.2 3.1-3.2 5.7-1-8.5-6.4-5.2-9.4 7-19.9 2.2-4 2.7 6.9 5.7-2.7.1-1.9 4.5.2 2.2-3.7-3.9-4.6 1-12 4.3-9.1.9 5.7 5.2-.8 6.1 6.6 3.6-3 13.1-7.4 17.7 6.4.2 4.3-10.3 27.2.3 12.3-.2.1-2.1-.3-1.4-2.1 1.9-2.6 4.3 1.7 6.7-.3 3.6 1.3 7.7-4 11.6-1.4 1.5 3.3 6.8 3.2 10.3-.3-2.9-3.5.6-5.4 4.2-4.1-.2-1.9 13.9 3 10.6 8.2-.1 1.7 1.7-.3 2.8 1.2 1.3.8 9.8 9.6 5.2-3.3 3.6 3.6 12.6-3.7 13.4-7-4.9-.5 2.2-4-2-5 .5-.8.2-.5 1-.8 11-.3 21.1-2.8 30.4 5.3 7-3.2 15.2-9.5 18.6.8 6.8 4.7 17.8-11.7 21.4-2.8 1.3-1.4 3.6 5.4 5.4 0-20.9-15.5 33.2-9.4 37.3-2.1.9-2.4-4.6-2.1 1.4-6.3 8.8-3 7.4 9.2 11.3 17.2-4 3-7.3-2.5-11.1.3-2 5.2-4.3-3.1-5.8.8.3 1.7 9.3 7.2 1.2 13 1.1 1.2 6 1.2 6.2 5.2 1.4 1 6.9 1.5 5.4 7.6-2.1.7-7.7-2.6-10.8 16.2.8 8.1-3-5.4-8.3 3.7-.6 3.5-.9.8-3 .5-1 4.7-6.7-1.9-.4 14.7 2.5-3.3 2.8 4.9 6.6 7.3.1 1.4-.7.4-2.2 1.7-1.8 3 5.8 6.4 1.2 8.4-2.2 1.2-1 3.9-.3 7.4-2.1 1.4-2.3 1.4-1.1 5.4-.9 17.5-20.4-22.7-15.6-27.7 4-2.3.4-13.5 4.9-19.3-1.3-1.9-1-13-4.9-9.7.3 1.3.9 3.9 2.3 4.3-.8 2-2 1.2-2.6 6.5-.8 4.9-10.5-15.1-11.7 6.2-2.9 5.7 6.8 5-1 7.5-.9 1.5-5.4 3.5-3.9 0-.9 0-4.6-4.3-6.9 1.1-3.4 4.1-14.8-3.9-15.5 12.9-13 30.4 4.8 5.8 13.5 23.9-3.5-21.3 7.7 4.1 11.8 12.5-6.1.8 1.3 8.9 2.6 12.7-.3.7-3-3-2.9 1.1-4.6-4.1-4.8-20.1-10.8-24.7-1.4 10.8 6.5 11.1-1.3 30.2-4 16.5-13.3 3.2-13.5 18.3-1 2.3-.7 1.2-3.5 4.4-1.9.5 14.6 14 5.3 17.3-9.8 6.3-2.2-23.3-20.5-13.1 1.3-3.3.8-13.4-5.4-.8-9.8 7.4 7.7 2.3 10.6 7.3-15.6 6.6 3.4 12.4.3 18.3.3.8 3 .6-.1 4.3 6 .1-.4 8.3-1.9 15.9-7.1 10.7-14.7 7.9-21 13.4l.1-.1c-.1.1-.1.1-.1 0 1.3 4.5-10.3-8.7-11.3 6.8.8 1.2 19.5 16.3 4.7 23-6.3 7.9-8.5-2.8-13.2-5.3-2.1 0-2.8-3-5-2.3-.2 4.1-3.8 9.3-.3 10.5 2.1 7.1 13.4 11.2 11 21.5-4.6-.9-8.3-6.5-10.8-14.7-9.4-7.1 1.9-11.9-9-27.4-3.9 2.8-6.6 4.9-7-4.3-2.4-3.3-5.8-6-8.3-11.3-9 5.1-5-2.4-16.3 10.4-.9 2.9-10.8 7.3-10.4 11.4-1.1 35.6-18.7.9-21.6-19.5-2.4 7-12.1-.8-6.2-2.5-5.8 1.2-8.1-9.7-15.4-6.6-12.2.8-22-3.1-33.3-7.5-15.3-19.4-3.6 11.3-.3 5.1 1.5-1.8.9 3.7 2.2 4.9 5.9 3.9 10.3-9.2 11.6-4.1-1.3 6.6 14 4.6 7.2 13.1-1.3 4.8-37.6 33.4-40.7 15.7-.3-4.1-22-41.4-24-33.5 6.1 13.9 13.9 30.4 26 41.3-1.6 8.4 16.3 1.6 19.1.9 6.4 17-28 31.3-30.2 46.9 6.3 21.7 5.8 23.2-12 36.1 1.1 9.9 2.8 9.7-6.6 16.1-1.3 19.2-40.5 35.9-38.6 13.8-2.4-9.3-5-3.6-7.3-23-2.3-8.2-10.1-10.4-3-23.9 2.2-2.5 4.1-3.5 1.4-9.2 1.5-10.4-8.1-14-10.4-22.7 7.2-19.6-3.9-9.9-8.7-14.1-9.9-14.8-32.5 19.3-52-18.3-5.2-.7-4.5-7.8-1.9-17.5.3-7.6-4.6-5.1.3-12.8 4.7-11.2 10.3-9.5 16.2-19.1 3.2-17.7 14.3-11.7 23-15.8 6.1-1.1 22-9 26.2-.4 2.4 3.3-4.3 7.4 5.3 8.6 4.4-.9 6 2.1 8.5 4.4 2.8-.9 5.4 3.9 8.6 2.7 1.7-21.8 39.3 18.9 39.7-18.6-35.6 7.3-17.6-15.1-29.7-12.2-.6 2.4-2.1 1.9-3.6 1.2 0 4 4.3 3.7 4.3 7.5-4.3 1.3-3.2 9.2-8.1-.7-.4-2.6-2.9-2.7-3.7-5.8-2.3-1.6.5-5-3.1-7.4-3.8-2.8-8.8-4.1-12.8-9.8-11.7 2.2 16.9 15.9 11.9 17.3-5-3.4-1.1 1.5-3.1 4.6-3.9 3.7-3.9 8.9-10.1 2.3 20.4-1.8-4.3-14-9.5-20.2-4.2 4.1-8.6 1.6-13.1 4.4.1 7.7-9.7 6-7 12.7.4 5.2-27.2 18.9-21.5-9.9-4.8-12.7 26.7 5.6 15.5-16.1-7-5-6.6-3.9 1.7-6.2-1.3-3.8 3.6.8 7.6-4.6 3-3.6 5.8-8.7 9.3-9.9.4-1.6 7.5 1.6 5.5-4.6-3-6.7 1.6-11.4 4.1-9.8-.3 1.6-.6 3.1.9 4-1.3 1.6-1.4 2.7.7 4.7 1.3 1.6-1.1-5.1 2.9-3.2-.2 7-4.1 3.1-5.8 3.5 1.1 5.1 5.4 2 8.3 1.6.9 1.9 1.6 4.3 3.9 1.2 3.7-4.4 9.6.8 13.1-4.6-1.7-10.7 3.5-6.3 6.4-7.7.7-7-4.8-.2-5-4.1 4.3-6.3 10.8-2.9 15.3-7.1-4.5-4.8-11.6 3.9-16.1-.9-7.6-12 1-10.2 4-22-4.1-1.8-4.8-3.2-9 8.6-2.6 1.4-10.1 8.8-2.1 15.2 1.2 6.1-4.2 1.7-3.9 11.5 3.8 3.2-3.1 2.6-5.5 6.1-3.7.8-4.8-6.9-6.9-13.4-7.5.9-9.6 12.8-13.9-7 .5-5.4-.3-4.4 2.8-6.8.5-2.1 3.4-1 4.6-3.5 6.8-3.3 7.8-17.4 15.4-23.3-.9-.6-1.2-.2-4.6 0 .6-1 .3-4.3 2.8-4.4-1 .8.4 4.3 2.8.8-1.2-.8-1.3-3.4 1.2-3h-.1c.1-.2 1.2-1.5 1.9-1-.5-.8-1.1-1.7.6 0 2.1-.4 1.5-2.8 5.7-3-1.2-2.9 1.4-.9 3.5-2.6 1.7-2.6 3-1.1 5.3.2.3-1.5 2.1-4.7 3-.2 1.5-2.6 10 1 3.1 3.4.3.6.1.6 1.1 1 14.5-3.8 43.3 23 8.2 14.1 4.4 1.2 6.5 16.1 12.2 11.4-.3-.4-6.6-4-1.4-5 .6-.2 5.7 5 5.4 0-1.3-1.6-1.1-2.6.7-4.3.5-3.7 10.1.6 5.2-7-2.8-11.5.1-6.1 5-3.8.3 2.3-3.9 1.7-.4 4.8 2.8 1.7 3.4-1.3 4.3-3.1 3.3-2.8 6-5.5 10.1-7.4 1.2 6.9 6.4-2.9 11.2-.6 0-.2.2 2.1 1 1.4 5.1-5.8-3.8-4-5-9.6 7.1 0 16.5 7.8 23.7 6.3-8.7-4-9-13.8-6.7-23.5 2.3 1.1 7.4-4.8 7.7 7.5 3.3 3.5 4.1 9.9 6.9 14.1 3.7 1.1 2.7 12.5-2 12.2 4 1.1 5.1 1.2 6.7-4 2.3-7.7-4.8-5.4 2-10.6-.8-2.6-7.3 5.6-7.4-6.4-6.1-8-2.2-3.1-3.5-13.4 2.2-.7 3.2 12.1 9.4 7.8-.3 1.5-10.7-5.5-2.3-3.5 2-.9-.2-1.6-1.1-2.4 0 0-.2.3-.1.2-2.6-5.8 15 1.1 13.7 6.6m21 182.1c.1 0 .1-.1 0 0zm-100.2-17.2c.8.5 0-.9 0 0zm-1-1.7h-.1c0 .2.1.1.1 0zm-.3-.1h.1s-.1 0-.1-.1v.1zm221.9-13.8l-.1-.1.1.1zM444 119.1zm-.1 0c-.1-.2-.3-.4-.4-.4.2.3.4.3.4.4zm-.5-.6h.2s-.1 0-.1-.2l-.1.2zM253 409c.1 0 .1 0 0 0zm235.3-16.1c-7.4-1.7-1.4-16.5 0-24.8 3-1.3 8-1.9 10.8-7.9 12-10.4-4.3 38.1-10.8 32.7zm273.1-38.5c-10.9.3-7.2-11.9-17.6-5.7-1.1 6.2-9.3-1.7-14.1-.8 6.3-5.8-4.9-11.8-11.2-11.2-1 .7-4.7-3.9-.9-3.7 4.7-1.4-2.4.3-2.7-2.1-3.5-.7-2.5-4.8 4.6-3.3 4.1 3.1 1 10.7 8.6 3.7 7-3.1 29.6 8.1 26.5 13.7.8 2.9 10.6 8.1 6.8 9.4zm-69.2-.4c.3-4.1 7.3-6 9.4-4.7-2.4 1.4-6.2 3.7-9.4 4.7zm-16.9-3.8c-5-1.8.9-1.6 2.7-2.1 7.2-.3.3 3.5-2.7 2.1zm8.1-.6c.5-3.9 4.7.3 7.5-1.7.5 2.9-6 2.2-7.5 1.7zm-15.4-.3c-25.1-2.6-27.1-10.5 0-4.5-6.6 2.3 12.1 3.1 0 4.5zm89.5-8c-.4-1.9 3.9-.4 4.6-1.7.5 1.2 2.5 1 4.2-2.3 6.6 2.1-7.2 8.2-8.8 4zm-112.7.3c-8.8-5.3-16.1-20.5-23.7-30.1 2.6-1.1 23.3 12.3 21.4 17 1.3-.2 3 4.6 4.4 3 .9-2.3 5.6 4.1 1.9 2.8-1 3.5 1 8.3-4 7.3zm3.3-8c.5.4 1.2 1.1-.1-.2.1.1.1.1.1.2zm-.3-.5c.2.4.2.1.1-.1l-.1.1zm34.8 7.8c-3.8-25 7.7-13.6 14.1-18.6 4.2 5.7-19.5.9-9.9 7.4 2.1-1.3 4.6-2 6.5-1.2-.1.6 0 2.3-1 2.1-7.1.3.2 5.2-.2 9.7-1.2 1.6-2.3-.7-2.5-1-1.4.7-3-1.7-3.2-4.8-2.3-1.4.3 9.4-3.8 6.4zm-12.5-4.1c-13.2-.7-19.9-17-8.5-14.6.8-3 3-2.8 4.9-4.3 2.4-3.9 4.1-3.6 7.3-7 3.6-6.1 5.2 1.6 8 2-.6.8-1.4.8-3.4 3.4-1.7 4.1 2.5 5.5 2.1 8.1-6.8 1.8-5 17.9-10.4 12.4zm41.4-.6c-1.2-1.9-5.2.6-6.7-1.5 1.4-2.6 8.7-1.1 6.7 1.5zm-13.2-25.3c-6.4-.5-.5-6.5-9-4.2 3-6.3 5.1.1 9.4-7.2.6.3 5.8 9.7.3 8.2-.5.8 1.6 2.3-.7 3.2zm-116.9-1c-.7-1.5-1-3.2-.8-4.8.6-13.3 11.3 9.1.8 4.8zm112.3-16c-2-.1-.6-3.3-2.9-4.3-1 1.4-2.4-1.7-4.5.1-10.6-6.4 3.8-25.1 1.9-7.4-4.1 6.6 8.5 3 5.5 11.6zm-495.8-13.2c-2-1.9-10.8-1.3-2.8-3.1 2 .7-2.4-4 .9-3.6 3.4.8 7.6.1 10.5 3.5 0 2.3-6.6.8-8.6 3.2zm-11.1-5.8c-6.4-2.1-9.8-10.1-21.1-5.7 1-10.2 36.2 6.2 21.1 5.7zm496.2-9.3c-7.9-4 7.3-21.1.1.1.1-.1 0-.1-.1-.1zM155.7 248c0 .1.1-.1.1.1l-.1-.1zM703 235.6c-.4-1.1-.8-2.4-1.2-3.4.9-.6.4-2-.5-1.2.1.3-.2 0 .1-.1-2.8.5 4.3-10.8 7.3-10.5 1.9-1.6 5.6 2.6 6-6.5 2.9 3.4 7.7-3.7 5.1-11.6-.3-9.3 6.9-.6 6.3 6.1-2.6 2.5 2.7 16.3-2.3 12.1-3.1 5.9-3.7-1.3-8.3 6.8-1.2.5-3.1.3-3-3.2-2.8-.8.8 1.2-1.2 3.9-1.5 1.1-8.3 1.7-1.5-2.8-.9.1-4.5.3-5.8 2.2 3.4-.3 3 11.8-1 8.2zm18.5-37.1c.1 0 .2 0 .2-.1l-.2.1zm-294.1 25.4h.1c0 .2-.1.2-.1 0zM719 197c-.1-1.9-3-1.7-1-6.3 4.7-10.5-5.3-11.1 11.7-4 .4-4.6 3.1-2.1 0 0 3.6 3.2-5.3 6.7-10.1 6.8 1.3.1 3.7 2.5-.6 3.5zm-488.9 0c-1.4.1-1.7-1.5-3.2-1.5-3-3.5 3.3-2.1 3.2 1.5.1-.3.2.1 0 0zm22-1.9c-2.1-.4-1.9-.9-1.9-3-.9.9-5.2 4.1-2.9.3-2.2-2.9-10.6 3.1-7.9-4.3 1.3-2.1 15.6-18 6.8-5.1.1.2 1.2-.6 1.6 1 0 3.6 2.7-1.9 4.8 2.4-1.1 1.4-.3 1.4.6 2.3-.6.7-2.4 1.9.3 2.4.8.9.1 4.1-1.4 4zm1.3-3.7c0 .1.1 0 .1 0h-.1zm-7.3-8.1l.1-.2c-.1-.1 0 .1-.1.2zm118.2 3.2c.4-1.1 1.7-3.5 5-4.1-.2-1-5.3-.7-3.2-2.8 1.5.3.2-2.8 1-4.5 1.9 0 4.1-.3 1.1-4.9-.6-.7-3.1 1.8-2.6-3.1-.7.8-1.2.9-2.1-.7 1.9-3.9-4.2-3.4 2.8-10 .2 0 4.8-1 1.9 2.4 8.9 2.2-2.8 2 6.9 12.1 1.3 1.2 2.4 3.8 2.3 5.5.6-.9 5.8.7 1.9 4.6 2.8 5.1-6.6 2.8-14.8 6.2 0-.3 0-.5-.2-.7zm-131.5 0c-.8-.3-2 .2-4.6-2.6-.5-2.6 7.6 2 4.6 2.6zm121.3-6c-1.5-1.6.6-2.3 1.2-5-4.8-5.2 11.6-12.8 8.1-3.7.5 6.4-3.8 8.8-9.3 8.7zm71.1-23.6l-.1.2.1-.2zM274.3 90.7c-.9-.8-1.6 0-2.2.8-.8 1.7-4.4-.5-2.8-1.8.9-.4 1.6-2 1.5-2.7-1.2.3-.9-1.9.1-2.2 1-.5-1.5-1.1.9-1.6 1.2 0 .5-.9 0-1.3-.2-.7.7-1.4.3-2.2-.1-2.3-1.3-4.5.1-6.3.5-1.1-1.9-.6-1.2-1.4 1-5.7-.8-10.1-7.4-11.9-2.2 1.3-4.4-.5-6.3-.3-1.3 2.3-3.1-.3-4.2-2.4-.5-.9 2.4-1.4 1.4-1.9-3.8-2.1-2-5.3 1.9-4.5 1.5-.8 2.9 0 4.4 0 1.3-1.6-2.9-1.2-3.8-.9-7.9-6.1-3.1-9 4.8-10.3 4.6-1 9.2.8 9.9-5.7-4.6-1.3-2.9-3.3-.2-5.9 2.9-1.3 4.9-2.9 9.1-3.3 1.5.1.8-6.6 4.1-5.2 1.6 2.1 0-2.7 6.2-1.9.6 1.3 4.8-5.2 5.2 1.5-.1 1.6-2.2 3.2-2 4.5.6-.1.9-1.2 1.5-1.5 5.6-15.1-1.4 12.9 7.4-5.4 1.2-1.3 8.2 21.1 4.3-.8 3.7 1 6.4-7.2 12.1-4.2-1.3-2.9 3.7 1.6 2.2-1.3 3.4-4.3 13.4-2.2 18 2-3.6 3.4-10-.9-15.2 2.6 1.9-.2 21.9-3.2 15.4 2.1 5.7-1 12.3 5.7-.2 6.8-4.1 0-9.3-1.4-14 2.3 22.2-4.6 6.1 2.8 13.7 2.1 6.2-5.9 7.4-.8-.1 5.7 3.1-1.7 6.6-3 10.3-5.7.3-3 14 .1 7.2 5.2-5.1 2.2.6 3.4-7.7 3.7.8.2 4.5 1.7.6 3.2-2.8 1.9-4.5 13.9-7.7 15.3-1.4 1 3.8 2.8.3 4.1.4 2 5.2-2.1 1.1 9-.2-1.5-1-8.6-4.6-3.7.1 0 1 .8.7.9-1.5-1.6-1.2 1.3 0 1.4 2.8 1.2.7.9 2.1 4.1.5 3.6-2.1 2.8-2 3.9 3.8 5.3-1 5.2-3.7 5.2 4.6 1.3 1.9 6.2-3.2 4.2 1.2 1.4 3.4 2.4 1.5 5.9-1.1 3-7-9-4.1-.9 6.7 2.3 5.6 20.2-1.7 6.7-1.6-1.1.1 3.4-3.2 4.5 1.8.4 6-.1 7.2 2.1-18.2 12-44.5 17.1-49.5 42.1-.7 6.2-4.9-4.8-9-2.1-1.4-2.1-8.3-14.1-2.7-17.2-4 4.1-5.9-10.9-2.3-10.8-3.1 1.5-.7-7.7 2.7-6.6-.4-.5-.7-1.1-.6-1.9 2.6.3 3.1-1 4.6-2.3.4.6 2.4-.5 1.6-4.3-2.1-.2-6.4-2.8-3.2.6-.3 5.6-8.8-.2-4.3-3.4 1.6-.1-.4-2.8 1.7-2.5 1.6.9 6.5.6 3-1.3-1-.8 1-1.6.7-2.4-1.4.3-1.4-.5-.7-.5m-2.1 8.9c.1 0 .1 0 0-.2v.2zm64.4 36.1c-2-1.2-5-.8-7.7-2.7.5-.9 2.3-1.4.7-3-.5-.6-1.5 0-2.6-1.2.5-1.4 2 .4 3.3-1.8-1.4-1.3-7.1.3-.8-4 .4-.9 2.7-1.4 3.8 3.6-.1.3 1.4.4 1.4-2.4.3.4 0-1.2 1.3.6 1.1-.1 1.4-1.9 2.5-.8 16.3-3.6 8.7 12.5-1.9 11.7zm-102.1-.1c-2-.6-4.7-2.1-7.9-4.9-2.2 0-2.8-9.8-8.7-8.6-.8-.5-5.4 3.3-5.4-2.6 1.9-4.5 7.9.4 10.6-2.9-2.4-5.1 10-4.6 4.8-13.3-.4-1.1-4.6-.5-1.8-2.1.2-1.2-.7-.4-2.5-.6-1.2-2.4 3.1.3-.2-5.2-.5-1-1-1.3-.1-2.7.1-1.3-2.7-.7-2.1-2.6-1.2-.8 1.8 4.7-2.6 4.1h.1c-.1-.1-.5-.7-.7-.6 1.3 3-5.2-2.8-7.4-1.4-2-1.4-8.5-3.1-9.2-6.1-.7-4 2.6-.5 3.9-2.2-9.8-1.4 6.6-20.8 12.5-15.3-2.3 2.3-10.3 8.3-6.4 13.6 1.7-2.5-2.2-1.4 2-5.6-.3-5.5 8.6-8.9 11.2-4.9-1.5 4.6-2.6 9 5 6.2-1.8-.7-7.8.6-4.1-6.9 2.6-2.7 11.5 7.5 4.2 6.9 1.5.6 3.6 2.7 3.9 5.5-1.9 4.9 4.2-1.4 4.8 6.2 2.9 2.8 5.2 1.4 5 9.8 1 2.1-1.3.7-2.5 1.4-.6 3.3-1.8 1.1 1.1 4.5 2.7 1 3.3 4.6 5.9 5.7-.1-.2.3.2 0 .2-.4.3.3.7.1.8 6.9 3.7-3 4.3-3.9 9.4-.6.4-1 0-2.6-1-.2-.4-2.1-8.6-3.9-5.3-.2 1-.8 1.2-1.9 1 3 6.7 5.8 9.1 2.8 16.9-1.6-2-4.7-5.1-7-6.3-.7 2.1 4.4 5.3 3 8.9zm-3-8.1c-.1-.2-.1-.2-.2-.2l.2.2zM218 93.7c-.4-.4-.8-.6-1-.4.1.4.5.4 1 .4zm-1.1-.7l-.2-.2.2.2zm21.4-3.2l.1-.2c-.1 0-.1.2-.1.2zm-27.1-5.5zm11.2-4.3c-.3.3.3-.3.2-.4l-.2.4zm.6-.6l-.3.2c.1 0 0-.2.3-.2zm3 52.2c-1.2-.6 1.5-1.5 0 0zm-5.4-23.5c-3.7-.4 2.2-8.7 4.1-3.6-.6 2-2.3 4.6-4.1 3.6zm266.5-11.4c-4.2-3-13 2.3-9.5-17.2 2.9-10.4-2.1-5.9 3.2-11.6-.5-6.9 28.5-19.9 13.6-5.2-8 6.1-13.8 17.5-7.3 34zm-318.9-6.4c-8.9-6.9-9.5.6-20.6-2.3-1.4-2.4 2-4.2-.8-4.8-6.7-2.2-3.2-10.8 8.7-4.7.1-4.7-19.1-5.7-4.8-9.4-7.9-.9-2.5-5.9 4.9-9.4-5.2-1.1-8.6 7.2-14.8 7-15.2 5.7 15-39.3 19.4-8.4 2.9.9-2.1 5.4.4 4.4 0-1.2 4-2.3 4.1 2.3-1.7.7-1.7 1.4 1.4 1.4 1.3-3.2 3.7-4.9 1.9 6.3 2.8-.3 2.6-16.1 8.5-8.1-1.1-1.2-.2-9.4 4.8-2.1-18.4 16.5 4.1 24.6-9.2 24.6.3-.2 1.6 5.1-3.9 3.2zm3.6-3.8zm13.4-8c-8.5-20.1 1.2-4.5 1.3-15.2 1-.5 2.1-4.2 5-1.4 6 .8 3.5 2.7.5 6 3.4 5-.6 8.2-6.8 10.6zm154.5-10.2c.5.5.5.5 0 .9v-.9zm64.3-2.2c-3-4.3-4 1.1-4.6-8.1-3.6-2.5-10.9-15.2 2-11.6 1.2-6.3 2.3-.3 9.1 3.7-.1 2.3 12.7 9.3 4.5 11.9-5 2.8-4.1-14.6-9.7 6.8l-1.3-2.7zm-1.9-15.7zM219.3 64.3c-29.8-4.7-4.2-11.7-16.3-17.7-1.6-5.5 1.2-7.9 5-2.7 11.7 9.4-5.2 3.7 6.4 10.9-.2 2.1 15.1-4.1 12.1 6.7-.9 2.3-4.9 3.2-7.2 2.8zm-20.1-5.9c-2.8-1.3-4.3-3.4-.6-6.3.8-2 6.2 4 .6 6.3zm49.9-50.7c-3-2.6 2.7-7.5 3.9-1.9 3.1 1.2 2.1-8.1 7.2-3.2-.5-4.5 2.4-2.1 4.2-.8-.1.6.6 3.4 1-1 .6-2 19.3 2.9 15.2 6.7 1-.3 2.6-1.6 4.8.8 4.2 12.8-6 7.7-9.9 11.3 5.9 2.4-20.6 14.1-23.4 14.3.6.7 2.2.7 1.9 2-.3 2.2-3.8-1.3-2 1.5.9 1.7-2.2 5.6-4.1 5.2.8 4.2-3.6-.5-4.6 2.6-4.2 3.6-4.2 10.3-10.2 10.1-1-2.6-3.9-1.8-6.3-2.6-4.4 1.8-17.2-5.8-.7-7.1-.9-5.3 1.4-7.9 3.9-2.1 3.5-4.4-5.6-2 1.2-9.2 5.3-.5 7.3-.6 6.3-10.5 4.6-7.3 7.6 7.4 7.4 0 2.8-1 8.6-.6 11.6-1.9.2-.3-3.2 0-2-2.3-2.5.5-4.9 5.4-8.9.6-.5-.3-1.6 2.5-5.2-2 .1 0 .2-.4-.1-.3-.4 1.2-5.3-3.5-1.3-3.6-2.2-1.8.1-.5-.5-4.9 0-.3.9.5.9-.8-4.8.5 2.3-6.5 9.7-1.1M231 45.3h-.1c0-.2.1 0 .1 0zm1.4-5l-.1.3.1-.3zm-56.6 13.4c-3 1-6.6-4.2.8-4.6-2-2.6-3.4 3.4-8.2-3.8 2.1-2.2 2.3-.8 4.8-5.1 1.2.7 1.7-6.9 8.1.7-.7 7.4 3.2 9.1 4.9-1 .3 0 4.3-4.4 3.4-.3-3.6 10.2 8.8.7-.1 11-1.1 2.9-7.6-2.3-13.7 3.1zm244.8-10.3c-.2 3.1-2.4 7.4-6.5 5.8-19.2-4.9.3-14.2 6.5-5.8zm-256.9-1.5c-.5-1.9 2.5-3.7 4.9-2.7-1 .7-2.6 3.7-4.9 2.7zM224.2 19c-2.6-4.3 0-4.6 2.6-4.1-1.7-6.1 7-1.3 2.1-5.7.7-1 5.3-2.3 3.6 6.9 2.2 2.3 5 3.2 1.4 8.8 2.3 3.5 0 4.3-1.7 6.9-1.4.6-1.2-1.8-1.4-1.2-2.1.8-3.9 4.1-7.2 5.4-3.4 1-8.6-7.3-.8-9.3-4.4-.8-3.6-8.9 1.4-7.7m-60.8 19.6c-11.4-2.3 14.7-16 14.9-7.4-7.6 9 .2.9-14.9 7.4zm48.4 1.4c-3.5-6.2 4.8-12.5 4.8-2 0 2-2.1 2.8-4.8 2zm-16.1-12.9c-3.4-2.4 5.1-7.9 4.3-.5 5-2 2.8 12-2.6 11.4.3-10.2-8-2.7-1.7-10.9m152.9 2.8c0-.4-.1-1.1.3 0-.3 0-.3.7-.3 0z" fill="#213548"/><path id="Line_387" class="st1" d="M443.4 152.4L419.9 193"/><path id="Path_5908" class="st2" d="M424.4 182.7h102.5v-31.1h-84.6l-17.9 31.1z"/><g class="st3"><path class="st4" d="M460.1 164.1v2.1h3.3v1.8h-3.3v2.2h3.8v1.9h-6.2v-9.9h6.2v1.9h-3.8zM473 164.3v7.8h-2.4v-1.4c-.2.5-.6.8-1 1.1-.4.3-1 .4-1.5.4-.9 0-1.6-.3-2.1-.9-.5-.6-.8-1.4-.8-2.5v-4.5h2.4v4.2c0 .5.1.9.4 1.2s.6.4 1.1.4c.5 0 .9-.2 1.1-.5.3-.3.4-.7.4-1.3v-4.1h2.4zM478.2 164.7c.5-.3 1-.4 1.5-.4v2.6h-.7c-.6 0-1.1.1-1.5.4-.4.3-.5.7-.5 1.4v3.6h-2.4v-7.8h2.4v1.5c.4-.7.8-1.1 1.2-1.3zM486.5 164.7c.6.3 1.1.8 1.4 1.4.4.6.5 1.3.5 2.1s-.2 1.5-.5 2.1c-.3.6-.8 1.1-1.4 1.4-.6.3-1.3.5-2.1.5s-1.5-.2-2.1-.5c-.6-.3-1.1-.8-1.4-1.4-.3-.6-.5-1.3-.5-2.1s.2-1.5.5-2.1c.3-.6.8-1.1 1.4-1.4.6-.3 1.3-.5 2.1-.5s1.5.2 2.1.5zm-3.2 2.1c-.3.3-.5.8-.5 1.4 0 .6.2 1.1.5 1.4.3.3.7.5 1.2.5s.8-.2 1.1-.5c.3-.3.5-.8.5-1.4 0-.6-.2-1.1-.5-1.4-.3-.3-.7-.5-1.1-.5-.5 0-.9.2-1.2.5zM496.3 164.7c.5.3.9.8 1.2 1.4s.4 1.3.4 2.1-.1 1.5-.4 2.1c-.3.6-.7 1.1-1.2 1.4-.5.3-1.1.5-1.7.5-.6 0-1.1-.1-1.5-.4-.4-.3-.7-.6-.9-1.1v5.1h-2.4v-11.5h2.4v1.4c.2-.5.5-.8.9-1.1.4-.3.9-.4 1.5-.4s1.2.2 1.7.5zm-3.7 2.1c-.3.3-.5.8-.5 1.4 0 .6.2 1 .5 1.4.3.3.7.5 1.2.5s.9-.2 1.2-.5c.3-.3.5-.8.5-1.4 0-.6-.2-1.1-.5-1.4-.3-.3-.7-.5-1.2-.5s-.9.2-1.2.5zM506.6 168.7h-5.4c0 .6.2 1 .4 1.3s.6.4 1 .4.6-.1.9-.3.4-.4.5-.7h2.5c-.1.6-.3 1-.7 1.5-.3.4-.8.8-1.3 1-.5.2-1.1.4-1.8.4-.8 0-1.4-.2-2-.5-.6-.3-1.1-.8-1.4-1.4-.3-.6-.5-1.3-.5-2.1s.2-1.5.5-2.1.8-1.1 1.4-1.4c.6-.3 1.3-.5 2-.5.8 0 1.5.2 2 .5s1 .8 1.4 1.3c.3.6.5 1.2.5 2v.6zm-2.8-2.2c-.3-.3-.6-.4-1.1-.4-.4 0-.8.1-1.1.4-.3.3-.5.6-.5 1.1h3.1c0-.5-.1-.8-.4-1.1z"/></g><circle id="Ellipse_560" class="st2" cx="420" cy="193.1" r="3.1"/><path id="Line_387-2" class="st1" d="M611.8 96.3l23.5 40.6"/><path id="Path_5908-2" class="st2" d="M630.8 126.6h-82.5V95.5h64.6l17.9 31.1z"/><g class="st3"><path class="st4" d="M572.8 114.3h-3.7l-.6 1.8H566l3.6-9.8h2.8l3.6 9.8h-2.5l-.7-1.8zm-.6-1.8l-1.2-3.6-1.2 3.6h2.4zM582.1 108.9c.6.5 1 1.1 1.1 2H581c-.1-.3-.2-.6-.4-.7s-.5-.3-.9-.3c-.3 0-.5.1-.6.2-.1.1-.2.3-.2.5s.1.4.4.5.7.2 1.2.4c.6.1 1.1.3 1.5.4s.7.4 1 .7c.3.3.4.8.4 1.3 0 .4-.1.8-.4 1.2-.2.3-.6.6-1 .8-.5.2-1 .3-1.6.3-1.1 0-1.9-.2-2.5-.7s-1-1.1-1.2-2h2.3c0 .3.2.6.4.8.2.2.6.3 1 .3.3 0 .5-.1.6-.2s.2-.3.2-.5c0-.3-.1-.5-.4-.6-.3-.1-.7-.2-1.3-.4-.6-.1-1.1-.3-1.4-.4-.4-.1-.7-.4-1-.7-.3-.3-.4-.7-.4-1.3 0-.7.3-1.3.8-1.7.5-.4 1.3-.7 2.3-.7.9.1 1.7.4 2.3.8zM584.8 105.2c.3-.2.6-.4 1-.4s.8.1 1 .4c.3.2.4.5.4.9s-.1.7-.4.9c-.3.2-.6.4-1 .4s-.8-.1-1-.4-.4-.5-.4-.9.2-.7.4-.9zm2.2 3.1v7.8h-2.4v-7.8h2.4zM593.2 108.6c.4.3.7.6 1 1.1v-1.4h2.4v7.8h-2.4v-1.4c-.2.5-.5.8-1 1.1-.4.3-.9.4-1.5.4s-1.2-.2-1.7-.5-.9-.8-1.2-1.4c-.3-.6-.4-1.3-.4-2.1s.1-1.5.4-2.1.7-1.1 1.2-1.4c.5-.3 1.1-.5 1.7-.5.6 0 1.1.1 1.5.4zm-2 2.2c-.3.3-.5.8-.5 1.4 0 .6.2 1.1.5 1.4s.7.5 1.2.5.9-.2 1.2-.5c.3-.3.5-.8.5-1.4 0-.6-.2-1.1-.5-1.4-.3-.3-.7-.5-1.2-.5s-.9.2-1.2.5z"/></g><circle id="Ellipse_560-2" class="st2" cx="635.5" cy="137" r="3.1"/><path id="Line_387-3" class="st1" d="M650 360.1l23.5 40.6"/><path id="Path_5908-3" class="st2" d="M668.9 390.4H556.6v-31.1H651l17.9 31.1z"/><g class="st3"><path class="st4" d="M578.8 378h-3.7l-.6 1.8H572l3.6-9.8h2.8l3.6 9.8h-2.5l-.7-1.8zm-.6-1.8l-1.2-3.6-1.2 3.6h2.4zM590.7 372v7.8h-2.4v-1.4c-.2.5-.6.8-1 1.1-.4.3-1 .4-1.5.4-.9 0-1.6-.3-2.1-.9-.5-.6-.8-1.4-.8-2.5V372h2.4v4.2c0 .5.1.9.4 1.2s.6.4 1.1.4c.5 0 .9-.2 1.1-.5.3-.3.4-.7.4-1.3v-4h2.4zM597.5 372.7c.6.5 1 1.1 1.1 2h-2.2c-.1-.3-.2-.6-.4-.7-.2-.2-.5-.3-.9-.3-.3 0-.5.1-.6.2-.1.1-.2.3-.2.5s.1.4.4.5.7.2 1.2.4c.6.1 1.1.3 1.5.4.4.1.7.4 1 .7.3.3.4.8.4 1.3 0 .4-.1.8-.4 1.2-.2.3-.6.6-1 .8-.5.2-1 .3-1.6.3-1.1 0-1.9-.2-2.5-.7s-1-1.1-1.2-2h2.3c0 .3.2.6.4.8.2.2.6.3 1 .3.3 0 .5-.1.6-.2.1-.1.2-.3.2-.5 0-.3-.1-.5-.4-.6-.3-.1-.7-.2-1.3-.4-.6-.1-1.1-.3-1.4-.4-.4-.1-.7-.4-1-.7-.3-.3-.4-.7-.4-1.3 0-.7.3-1.3.8-1.7.5-.4 1.3-.7 2.3-.7.9 0 1.7.3 2.3.8zM604.5 377.8v2.1h-1.1c-.9 0-1.6-.2-2.1-.7-.5-.5-.8-1.2-.8-2.2v-2.9h-1v-2h1v-1.9h2.4v1.9h1.6v2h-1.6v2.9c0 .3.1.5.2.6.1.1.3.2.6.2h.8zM609.4 372.4c.5-.3 1-.4 1.5-.4v2.6h-.7c-.6 0-1.1.1-1.5.4-.3.3-.5.7-.5 1.4v3.6h-2.4v-8h2.4v1.5c.3-.5.7-.8 1.2-1.1zM616.4 372.3c.4.3.7.6 1 1.1V372h2.4v7.8h-2.4v-1.4c-.2.5-.5.8-1 1.1-.4.3-.9.4-1.5.4s-1.2-.2-1.7-.5-.9-.8-1.2-1.4c-.3-.6-.4-1.3-.4-2.1s.1-1.5.4-2.1.7-1.1 1.2-1.4c.5-.3 1.1-.5 1.7-.5.6 0 1.1.2 1.5.4zm-2 2.2c-.3.3-.5.8-.5 1.4 0 .6.2 1.1.5 1.4s.7.5 1.2.5.9-.2 1.2-.5c.3-.3.5-.8.5-1.4 0-.6-.2-1.1-.5-1.4-.3-.3-.7-.5-1.2-.5-.4 0-.9.2-1.2.5zM623.8 369.5v10.4h-2.4v-10.4h2.4zM625.6 368.9c.3-.2.6-.4 1-.4s.8.1 1 .4c.3.2.4.5.4.9s-.1.7-.4.9c-.3.2-.6.4-1 .4s-.8-.1-1-.4c-.3-.2-.4-.5-.4-.9 0-.3.2-.6.4-.9zm2.3 3.1v7.8h-2.4V372h2.4zM634 372.3c.4.3.7.6 1 1.1V372h2.4v7.8H635v-1.4c-.2.5-.5.8-1 1.1-.4.3-.9.4-1.5.4s-1.2-.2-1.7-.5-.9-.8-1.2-1.4c-.3-.6-.4-1.3-.4-2.1s.1-1.5.4-2.1.7-1.1 1.2-1.4c.5-.3 1.1-.5 1.7-.5.6 0 1.1.2 1.5.4zm-2 2.2c-.3.3-.5.8-.5 1.4 0 .6.2 1.1.5 1.4.3.3.7.5 1.2.5s.9-.2 1.2-.5c.3-.3.5-.8.5-1.4 0-.6-.2-1.1-.5-1.4s-.7-.5-1.2-.5-.9.2-1.2.5z"/></g><circle id="Ellipse_560-3" class="st2" cx="673.7" cy="400.8" r="3.1"/><path id="Line_387-4" class="st1" d="M152.5 174.9L129 215.5"/><path id="Path_5908-4" class="st2" d="M133.5 205.2h149.6v-31.1H151.4l-17.9 31.1z"/><g class="st3"><path class="st4" d="M172 194.7h-2.4l-4-6.1v6.1h-2.4v-9.9h2.4l4 6.1v-6.1h2.4v9.9zM179.4 187.3c.6.3 1.1.8 1.4 1.4.4.6.5 1.3.5 2.1s-.2 1.5-.5 2.1c-.4.6-.8 1.1-1.4 1.4-.6.3-1.3.5-2.1.5s-1.5-.2-2.1-.5c-.6-.3-1.1-.8-1.4-1.4-.3-.6-.5-1.3-.5-2.1s.2-1.5.5-2.1c.4-.6.8-1.1 1.4-1.4.6-.3 1.3-.5 2.1-.5s1.5.1 2.1.5zm-3.2 2.1c-.3.3-.5.8-.5 1.4 0 .6.2 1.1.5 1.4.3.3.7.5 1.2.5s.8-.2 1.1-.5c.3-.3.5-.8.5-1.4 0-.6-.2-1.1-.5-1.4s-.7-.5-1.1-.5c-.5 0-.9.1-1.2.5zM186.2 187.2c.5-.3 1-.4 1.5-.4v2.6h-.7c-.6 0-1.1.1-1.5.4s-.5.7-.5 1.4v3.6h-2.4V187h2.4v1.5c.3-.6.7-1 1.2-1.3zM193.1 192.6v2.1H192c-.9 0-1.6-.2-2.1-.7-.5-.5-.8-1.2-.8-2.2v-2.9h-1v-2h1V185h2.4v1.9h1.6v2h-1.6v2.9c0 .3.1.5.2.6.1.1.3.2.6.2h.8zM201.6 187.7c.5.6.8 1.4.8 2.5v4.5H200v-4.3c0-.5-.1-.9-.4-1.2-.3-.3-.6-.4-1.1-.4-.5 0-.9.2-1.2.5s-.4.7-.4 1.3v4.1h-2.4v-10.4h2.4v4c.2-.5.6-.8 1-1.1.4-.3 1-.4 1.6-.4.8 0 1.5.3 2.1.9zM212.9 192.9h-3.7l-.6 1.8H206l3.6-9.8h2.8l3.6 9.8h-2.5l-.6-1.8zm-.7-1.8l-1.2-3.6-1.2 3.6h2.4zM229.3 187.7c.6.6.8 1.4.8 2.5v4.5h-2.4v-4.3c0-.5-.1-.9-.4-1.2-.3-.3-.6-.4-1.1-.4-.5 0-.9.1-1.1.4s-.4.7-.4 1.2v4.1h-2.4v-4.3c0-.5-.1-.9-.4-1.2s-.6-.4-1.1-.4c-.5 0-.9.1-1.1.4-.3.3-.4.7-.4 1.2v4.1h-2.4v-7.8h2.4v1.3c.2-.4.5-.8.9-1 .4-.3.9-.4 1.5-.4s1.1.1 1.6.4c.5.3.8.7 1 1.2.3-.5.6-.9 1.1-1.2.5-.3 1-.4 1.6-.4 1 .4 1.8.7 2.3 1.3zM239.1 191.2h-5.4c0 .6.2 1 .4 1.3.3.3.6.4 1 .4s.6-.1.9-.3.4-.4.5-.7h2.5c-.1.6-.3 1-.7 1.5-.3.4-.8.8-1.3 1-.5.2-1.1.4-1.8.4-.8 0-1.4-.2-2-.5-.6-.3-1.1-.8-1.4-1.4-.3-.6-.5-1.3-.5-2.1s.2-1.5.5-2.1c.3-.6.8-1.1 1.4-1.4.6-.3 1.3-.5 2-.5.8 0 1.5.2 2 .5s1 .8 1.4 1.3c.3.6.5 1.2.5 2 .1.2.1.4 0 .6zm-2.8-2.1c-.3-.3-.6-.4-1.1-.4-.4 0-.8.1-1.1.4-.3.3-.5.6-.5 1.1h3.1c.1-.5-.1-.9-.4-1.1zM244 187.2c.5-.3 1-.4 1.5-.4v2.6h-.7c-.6 0-1.1.1-1.5.4s-.5.7-.5 1.4v3.6h-2.4V187h2.4v1.5c.3-.6.7-1 1.2-1.3zM246.7 183.8c.3-.2.6-.4 1-.4s.8.1 1 .4.4.5.4.9-.1.7-.4.9-.6.4-1 .4-.8-.1-1-.4c-.3-.2-.4-.5-.4-.9s.1-.7.4-.9zm2.2 3.1v7.8h-2.4v-7.8h2.4zM256.6 187.6c.7.6 1.1 1.3 1.3 2.3h-2.5c-.1-.3-.2-.6-.5-.8-.2-.2-.5-.3-.9-.3s-.8.2-1 .5c-.3.3-.4.8-.4 1.4s.1 1.1.4 1.4c.3.3.6.5 1 .5s.6-.1.9-.3c.2-.2.4-.4.5-.8h2.5c-.2 1-.6 1.7-1.3 2.3-.7.6-1.5.8-2.5.8-.8 0-1.4-.2-2-.5-.6-.3-1.1-.8-1.4-1.4-.3-.6-.5-1.3-.5-2.1s.2-1.5.5-2.1c.3-.6.8-1.1 1.4-1.4.6-.3 1.3-.5 2-.5 1 .2 1.8.5 2.5 1zM263.7 187.2c.4.3.7.6 1 1.1v-1.4h2.4v7.8h-2.4v-1.4c-.2.5-.5.8-1 1.1s-.9.4-1.5.4-1.2-.2-1.7-.5-.9-.8-1.2-1.4c-.3-.6-.4-1.3-.4-2.1s.1-1.5.4-2.1.7-1.1 1.2-1.4c.5-.3 1.1-.5 1.7-.5.5 0 1 .1 1.5.4zm-2 2.2c-.3.3-.5.8-.5 1.4 0 .6.2 1.1.5 1.4.3.3.7.5 1.2.5s.9-.2 1.2-.5c.3-.3.5-.8.5-1.4 0-.6-.2-1.1-.5-1.4-.3-.3-.7-.5-1.2-.5s-.9.2-1.2.5z"/></g><circle id="Ellipse_560-4" class="st2" cx="129.1" cy="215.6" r="3.1"/><path id="Line_387-5" class="st1" d="M459 295.5l-23.5 40.6"/><path id="Path_5908-5" class="st2" d="M440 325.8h94.7v-31.1h-76.8L440 325.8z"/><g class="st3"><path class="st4" d="M478 313.5h-3.7l-.6 1.8h-2.5l3.6-9.8h2.8l3.6 9.8h-2.5l-.7-1.8zm-.6-1.8l-1.2-3.6-1.2 3.6h2.4zM485.9 306.4c-.4 0-.7.1-.9.3-.2.2-.3.4-.3.8h1.4v2h-1.4v5.8h-2.4v-5.8h-.9v-2h.9v-.1c0-1 .3-1.7.8-2.2.6-.5 1.4-.8 2.5-.8h.5v2.1l-.2-.1zM490.8 307.8c.5-.3 1-.4 1.5-.4v2.6h-.7c-.6 0-1.1.1-1.5.4-.4.3-.5.7-.5 1.4v3.6h-2.4v-7.8h2.4v1.5c.3-.6.7-1 1.2-1.3zM493.5 304.4c.3-.2.6-.4 1-.4s.8.1 1 .4c.3.2.4.5.4.9s-.1.7-.4.9c-.3.2-.6.4-1 .4s-.8-.1-1-.4c-.3-.2-.4-.5-.4-.9s.1-.7.4-.9zm2.2 3.1v7.8h-2.4v-7.8h2.4zM503.4 308.2c.7.6 1.1 1.3 1.3 2.3h-2.5c-.1-.3-.2-.6-.5-.8-.2-.2-.5-.3-.9-.3s-.8.2-1 .5c-.3.3-.4.8-.4 1.4s.1 1.1.4 1.4.6.5 1 .5.6-.1.9-.3c.2-.2.4-.4.5-.8h2.5c-.2 1-.6 1.7-1.3 2.3-.7.6-1.5.8-2.5.8-.8 0-1.4-.2-2-.5-.6-.3-1.1-.8-1.4-1.4-.3-.6-.5-1.3-.5-2.1s.2-1.5.5-2.1c.3-.6.8-1.1 1.4-1.4.6-.3 1.3-.5 2-.5 1 .2 1.9.4 2.5 1zM510.5 307.8c.4.3.7.6 1 1.1v-1.4h2.4v7.8h-2.4v-1.4c-.2.5-.5.8-1 1.1-.4.3-.9.4-1.5.4s-1.2-.2-1.7-.5-.9-.8-1.2-1.4c-.3-.6-.4-1.3-.4-2.1s.1-1.5.4-2.1.7-1.1 1.2-1.4c.5-.3 1.1-.5 1.7-.5.5 0 1.1.1 1.5.4zm-2 2.2c-.3.3-.5.8-.5 1.4 0 .6.2 1.1.5 1.4s.7.5 1.2.5.9-.2 1.2-.5c.3-.3.5-.8.5-1.4 0-.6-.2-1.1-.5-1.4-.3-.3-.7-.5-1.2-.5s-.9.1-1.2.5z"/></g><circle id="Ellipse_560-5" class="st2" cx="435.6" cy="336.2" r="3.1"/><path id="Path_5906" class="st2" d="M222.1 367.8H70.7v-31.1h133.5l17.9 31.1z"/><g class="st3"><path class="st4" d="M92.3 356.7c-.3.4-.7.8-1.2 1.1-.5.3-1.1.4-1.9.4-1.1 0-2-.3-2.7-.8s-1.1-1.3-1.2-2.3h2.5c0 .4.2.7.4.9s.5.3.9.3c.3 0 .6-.1.7-.3s.3-.4.3-.7c0-.3-.1-.5-.2-.6s-.4-.3-.6-.4-.6-.2-1-.4c-.6-.2-1.1-.4-1.5-.6-.4-.2-.7-.5-1-.9s-.4-.9-.4-1.5.1-1.1.4-1.5c.3-.4.7-.8 1.2-1 .5-.2 1.1-.3 1.8-.3 1.1 0 2 .3 2.6.8.6.5 1 1.2 1.1 2.2h-2.6c0-.3-.2-.6-.4-.8-.2-.2-.5-.3-.8-.3-.3 0-.5.1-.7.2-.2.1-.3.4-.3.7 0 .2.1.4.2.6.2.2.3.3.6.4.2.1.6.2 1 .4.6.2 1.2.4 1.6.6.4.2.7.5 1 .9.3.4.4.9.4 1.6.2.4 0 .9-.2 1.3zM99.7 350.6c.6.3 1.1.8 1.4 1.4s.5 1.3.5 2.1-.2 1.5-.5 2.1-.8 1.1-1.4 1.4-1.3.5-2.1.5-1.5-.2-2.1-.5c-.6-.3-1.1-.8-1.4-1.4-.3-.6-.5-1.3-.5-2.1s.2-1.5.5-2.1c.4-.6.8-1.1 1.4-1.4.6-.3 1.3-.5 2.1-.5.8.1 1.5.2 2.1.5zm-3.2 2.1c-.3.3-.5.8-.5 1.4 0 .6.2 1.1.5 1.4.3.3.7.5 1.2.5s.8-.2 1.1-.5c.3-.3.5-.8.5-1.4 0-.6-.2-1.1-.5-1.4-.3-.3-.7-.5-1.1-.5-.5 0-.9.2-1.2.5zM110.7 350.3v7.8h-2.4v-1.4c-.2.5-.6.8-1 1.1-.4.3-1 .4-1.5.4-.9 0-1.6-.3-2.1-.9-.5-.6-.8-1.4-.8-2.5v-4.5h2.4v4.2c0 .5.1.9.4 1.2.3.3.6.4 1.1.4.5 0 .9-.2 1.1-.5.3-.3.4-.7.4-1.3v-4.1h2.4zM116.8 356v2.1h-1.1c-.9 0-1.6-.2-2.1-.7-.5-.5-.8-1.2-.8-2.2v-2.9h-1v-2h1v-1.9h2.4v1.9h1.6v2h-1.6v2.9c0 .3.1.5.2.6.1.1.3.2.6.2h.8zM125.2 351.1c.5.6.8 1.4.8 2.5v4.5h-2.4v-4.3c0-.5-.1-.9-.4-1.2s-.6-.4-1.1-.4c-.5 0-.9.2-1.2.5-.3.3-.4.7-.4 1.3v4.1h-2.4v-10.4h2.4v4c.2-.5.6-.8 1-1.1.4-.3 1-.4 1.6-.4.9 0 1.6.3 2.1.9zM136.5 356.3h-3.7l-.6 1.8h-2.5l3.6-9.8h2.8l3.6 9.8h-2.5l-.7-1.8zm-.6-1.9l-1.2-3.6-1.2 3.6h2.4zM153 351.1c.6.6.8 1.4.8 2.5v4.5h-2.4v-4.3c0-.5-.1-.9-.4-1.2-.3-.3-.6-.4-1.1-.4-.5 0-.9.1-1.1.4-.3.3-.4.7-.4 1.2v4.1H146v-4.3c0-.5-.1-.9-.4-1.2s-.6-.4-1.1-.4c-.5 0-.9.1-1.1.4-.3.3-.4.7-.4 1.2v4.1h-2.4v-7.8h2.4v1.3c.2-.4.5-.8.9-1 .4-.3.9-.4 1.5-.4s1.1.1 1.6.4c.5.3.8.7 1 1.2.3-.5.6-.9 1.1-1.2.5-.3 1-.4 1.6-.4 1 .4 1.8.7 2.3 1.3zM162.8 354.6h-5.4c0 .6.2 1 .4 1.3.3.3.6.4 1 .4s.6-.1.9-.3.4-.4.5-.7h2.5c-.1.6-.3 1-.7 1.5-.3.4-.8.8-1.3 1-.5.2-1.1.4-1.8.4-.8 0-1.4-.2-2-.5s-1.1-.8-1.4-1.4-.5-1.3-.5-2.1.2-1.5.5-2.1c.3-.6.8-1.1 1.4-1.4.6-.3 1.3-.5 2-.5.8 0 1.5.2 2 .5.6.3 1 .8 1.4 1.3.3.6.5 1.2.5 2v.6zm-2.8-2.2c-.3-.3-.6-.4-1.1-.4-.4 0-.8.1-1.1.4-.3.3-.5.6-.5 1.1h3.1c0-.4-.1-.8-.4-1.1zM167.6 350.6c.5-.3 1-.4 1.5-.4v2.6h-.7c-.6 0-1.1.1-1.5.4-.4.3-.5.7-.5 1.4v3.6H164v-7.8h2.4v1.5c.4-.7.8-1 1.2-1.3zM170.4 347.2c.3-.2.6-.4 1-.4s.8.1 1 .4.4.5.4.9-.1.7-.4.9-.6.4-1 .4-.8-.1-1-.4c-.3-.2-.4-.5-.4-.9s.1-.7.4-.9zm2.2 3.1v7.8h-2.4v-7.8h2.4zM180.3 351c.7.6 1.1 1.3 1.3 2.3H179c-.1-.3-.2-.6-.5-.8-.2-.2-.5-.3-.9-.3s-.8.2-1 .5c-.3.3-.4.8-.4 1.4s.1 1.1.4 1.4c.3.3.6.5 1 .5s.6-.1.9-.3c.2-.2.4-.4.5-.8h2.5c-.2 1-.6 1.7-1.3 2.3-.7.6-1.5.8-2.5.8-.8 0-1.4-.2-2-.5s-1.1-.8-1.4-1.4-.5-1.3-.5-2.1.2-1.5.5-2.1c.3-.6.8-1.1 1.4-1.4.6-.3 1.3-.5 2-.5 1.1.2 1.9.4 2.6 1zM187.3 350.6c.4.3.7.6 1 1.1v-1.4h2.4v7.8h-2.4v-1.4c-.2.5-.5.8-1 1.1-.4.3-.9.4-1.5.4s-1.2-.2-1.7-.5-.9-.8-1.2-1.4-.4-1.3-.4-2.1.1-1.5.4-2.1.7-1.1 1.2-1.4c.5-.3 1.1-.5 1.7-.5.6 0 1.1.1 1.5.4zm-2 2.2c-.3.3-.5.8-.5 1.4 0 .6.2 1.1.5 1.4.3.3.7.5 1.2.5s.9-.2 1.2-.5c.3-.3.5-.8.5-1.4 0-.6-.2-1.1-.5-1.4-.3-.3-.7-.5-1.2-.5s-.9.1-1.2.5z"/></g><path id="Line_388" class="st1" d="M203.2 337.3l23.5 40.6"/><circle id="Ellipse_561" class="st2" cx="226.6" cy="378" r="3.1"/></svg>