<svg width="224" height="26" viewBox="0 0 224 26" fill="none" xmlns="http://www.w3.org/2000/svg">
<path d="M207.211 25.3496L207.704 22.1782C208.295 22.4248 208.928 22.5566 209.566 22.5651C211.215 22.5651 212.384 21.4088 212.848 19.5468L206.735 4.74427H211.109L214.973 15.5124L218.795 4.74427H223.187L216.21 21.549C215.024 24.3846 213.205 26 210.033 26C209.051 26 208.086 25.7789 207.211 25.3496ZM140.693 25.6897V4.74001H144.498L144.574 6.5255C145.544 5.29267 147.07 4.42969 149.442 4.42969C153.629 4.42969 156.605 7.69457 156.605 12.1923C156.605 16.6602 153.634 19.8316 149.442 19.8316C147.27 19.8316 145.62 19.0919 144.638 17.9696V25.6854L140.693 25.6897ZM144.621 12.1838C144.536 14.3689 146.241 16.2096 148.426 16.2946C148.498 16.2989 148.57 16.2989 148.643 16.2989C150.985 16.2989 152.647 14.5262 152.647 12.188C152.647 9.79889 150.998 7.98364 148.643 7.98364C146.3 7.97939 144.621 9.82439 144.621 12.1838ZM128.212 14.6792V8.02614H125.716V4.74427H128.229V0H132.063V4.74427H136.344V8.02614H132.152V14.1095C132.152 15.6484 133.015 16.3286 134.342 16.3286C135.192 16.3201 136.034 16.1968 136.85 15.9758L137.22 19.2577C136.068 19.6488 134.865 19.8443 133.649 19.8443C130.401 19.8401 128.212 18.1566 128.212 14.6792ZM171.48 12.137C171.48 7.77959 174.851 4.43817 179.383 4.43817C183.927 4.43817 187.286 7.77959 187.286 12.137C187.286 16.5114 183.927 19.8401 179.383 19.8401C174.855 19.8358 171.48 16.5114 171.48 12.137ZM175.408 12.137C175.408 14.5092 177.07 16.2649 179.383 16.2649C181.708 16.2649 183.358 14.5092 183.358 12.137C183.358 9.78188 181.708 8.02614 179.383 8.02614C177.07 8.02189 175.408 9.77763 175.408 12.137ZM93.0504 12.1073C93.0504 7.62655 96.1155 4.43817 100.18 4.43817C102.475 4.43817 104.031 5.31818 105 6.53401L105.077 4.74852H108.945V19.534H105.077L105 17.7485C104.031 18.9814 102.475 19.8443 100.18 19.8443C96.1155 19.8358 93.0504 16.588 93.0504 12.1073ZM96.9785 12.1073C96.9785 14.4794 98.5812 16.3286 100.953 16.3286C103.308 16.3286 104.988 14.4794 104.988 12.1073C104.988 9.75212 103.308 7.96239 100.953 7.96239C98.5812 7.96239 96.9785 9.74787 96.9785 12.1073ZM50.2159 18.7731L50.6325 15.5379C52.2139 16.1799 53.9016 16.5284 55.6063 16.571C57.5321 16.571 58.3483 16.1713 58.3483 15.2914C58.3483 14.5049 57.7149 14.1223 55.9932 13.812L54.2205 13.4719C51.3722 12.9787 49.9863 11.5334 49.9863 9.0847C49.9863 6.32995 52.5413 4.43394 56.4693 4.43394C58.1825 4.40844 59.883 4.72301 61.4772 5.35643L61.1371 8.57455C59.7044 8.04316 58.1953 7.76258 56.6691 7.74132C54.7264 7.74132 53.7869 8.20471 53.7869 9.08044C53.7869 9.80314 54.433 10.173 56.2058 10.4961L57.7787 10.7894C60.7035 11.3293 62.1701 12.6514 62.1701 15.2106C62.1701 18.1821 59.7044 19.8316 55.9167 19.8316C53.6976 19.8358 51.5593 19.4362 50.2159 18.7731ZM200.388 19.5297L196.982 14.6154L193.611 19.5297H189.177L194.615 11.984L189.224 4.74427H193.769L196.987 9.30148L200.192 4.74427H204.72L199.359 11.984L204.843 19.5297H200.388ZM159.917 19.5297V4.74427H163.739L163.815 6.76356C164.521 5.29267 166.034 4.37866 167.667 4.43817C168.321 4.44667 168.972 4.56148 169.592 4.77828L169.282 8.30673C168.695 8.08992 168.075 7.97515 167.45 7.96664C165.711 7.96664 163.875 8.90615 163.875 11.9542V19.5297H159.917ZM113.205 19.5297V4.74427H117.027L117.103 6.76356C117.809 5.29267 119.323 4.37866 120.955 4.43817C121.61 4.44667 122.26 4.56148 122.881 4.77828L122.575 8.30673C121.988 8.08992 121.367 7.97515 120.742 7.96664C119.004 7.96664 117.167 8.90615 117.167 11.9542V19.5297H113.205ZM85.6237 19.5297V11.257C85.6237 9.20797 84.3611 8.09843 82.6649 8.09843C80.9687 8.09843 79.417 9.1612 79.417 11.1635V19.5255H75.4592V11.2528C75.4592 9.20372 74.1796 8.09417 72.5174 8.09417C70.8084 8.09417 69.2823 9.20372 69.2823 11.2528V19.5255H65.3245V4.74001H69.0825L69.159 6.44898C69.9157 5.41595 71.5141 4.42969 73.6865 4.42969C75.9353 4.42969 77.7846 5.36918 78.6476 7.04838C79.8124 5.37343 81.7381 4.39143 83.7787 4.42969C87.1669 4.42969 89.5858 6.63177 89.5858 10.2367V19.5255L85.6237 19.5297Z" fill="white"/>
<path d="M0 21.7905V2.37555C0.00425115 1.52107 0.692936 0.832376 1.54742 0.828125C1.845 0.828125 2.13407 0.913155 2.38064 1.0747L10.0455 5.98051C10.5088 6.26109 10.7894 6.76274 10.7937 7.30264V16.8719C10.7937 17.4118 10.5088 17.9135 10.0455 18.1941L2.38064 23.0999C2.13407 23.2614 1.845 23.3465 1.54742 23.3465C0.692936 23.338 0.00425115 22.645 0 21.7905ZM17.7868 20.3621V3.76143C17.7868 2.90695 18.4755 2.214 19.33 2.214C19.7126 2.214 20.0782 2.35429 20.363 2.60936L24.3931 6.12081C24.7247 6.41414 24.916 6.83501 24.916 7.27713V16.8422C24.916 17.2843 24.7247 17.7052 24.3931 17.9985L20.363 21.5142C19.7296 22.0839 18.7518 22.0286 18.1821 21.3952C17.9271 21.1103 17.7868 20.7405 17.7868 20.3621ZM31.9176 18.9295V5.14305C31.9176 4.28857 32.6063 3.59563 33.4608 3.59563C33.8859 3.59563 34.294 3.76993 34.5873 4.08026L36.6364 6.1378C36.9425 6.42688 37.1125 6.83076 37.1168 7.25163V16.8209C37.1168 17.2418 36.9425 17.6457 36.6364 17.9347L34.5873 19.9923C34.0007 20.613 33.0229 20.6427 32.4022 20.0561C32.0919 19.7627 31.9176 19.3546 31.9176 18.9295Z" fill="#F23F57"/>
</svg>
