<svg xmlns="http://www.w3.org/2000/svg" xmlns:xlink="http://www.w3.org/1999/xlink" width="80" height="48" viewBox="0 0 80 48"><defs><style>.a{fill:#b0c1d1;}.b{clip-path:url(#a);}.c{fill:#b22234;}.d{stroke:#fff;stroke-width:3.239px;}.e{fill:#3c3b6e;}.f{fill:#fff;}</style><clipPath id="a"><rect class="a" width="80" height="48" rx="4" transform="translate(0 6)"/></clipPath></defs><g class="b" transform="translate(0 -6)"><g transform="translate(0.4 6)"><rect class="c" width="91.2" height="48"/><path class="d" d="M0,4.858H91.2m0,7.385H0m0,7.385H91.2m0,7.385H0M0,34.4H91.2m0,7.385H0" transform="translate(0 0.68)"/><rect class="e" width="36.48" height="25.846"/><g transform="translate(1.635 1.108)"><path class="f" d="M2.839.972l.868,2.672L1.435,1.992H4.244L1.971,3.643Z" transform="translate(-1.435 -0.972)"/><path class="f" d="M2.839.972l.868,2.672L1.435,1.992H4.244L1.971,3.643Z" transform="translate(-1.435 4.198)"/><path class="f" d="M2.839.972l.868,2.672L1.435,1.992H4.244L1.971,3.643Z" transform="translate(-1.435 9.367)"/><path class="f" d="M2.839.972l.868,2.672L1.435,1.992H4.244L1.971,3.643Z" transform="translate(-1.435 14.536)"/><path class="f" d="M2.839.972l.868,2.672L1.435,1.992H4.244L1.971,3.643Z" transform="translate(-1.435 19.705)"/><g transform="translate(3.04 2.585)"><path class="f" d="M2.839.972l.868,2.672L1.435,1.992H4.244L1.971,3.643Z" transform="translate(-1.435 -0.972)"/><path class="f" d="M2.839.972l.868,2.672L1.435,1.992H4.244L1.971,3.643Z" transform="translate(-1.435 4.198)"/><path class="f" d="M2.839.972l.868,2.672L1.435,1.992H4.244L1.971,3.643Z" transform="translate(-1.435 9.367)"/><path class="f" d="M2.839.972l.868,2.672L1.435,1.992H4.244L1.971,3.643Z" transform="translate(-1.435 14.536)"/></g><g transform="translate(6.08)"><path class="f" d="M2.839.972l.868,2.672L1.435,1.992H4.244L1.971,3.643Z" transform="translate(-1.435 -0.972)"/><path class="f" d="M2.839.972l.868,2.672L1.435,1.992H4.244L1.971,3.643Z" transform="translate(-1.435 4.198)"/><path class="f" d="M2.839.972l.868,2.672L1.435,1.992H4.244L1.971,3.643Z" transform="translate(-1.435 9.367)"/><path class="f" d="M2.839.972l.868,2.672L1.435,1.992H4.244L1.971,3.643Z" transform="translate(-1.435 14.536)"/><path class="f" d="M2.839.972l.868,2.672L1.435,1.992H4.244L1.971,3.643Z" transform="translate(-1.435 19.705)"/><g transform="translate(3.04 2.585)"><path class="f" d="M2.839.972l.868,2.672L1.435,1.992H4.244L1.971,3.643Z" transform="translate(-1.435 -0.972)"/><path class="f" d="M2.839.972l.868,2.672L1.435,1.992H4.244L1.971,3.643Z" transform="translate(-1.435 4.198)"/><path class="f" d="M2.839.972l.868,2.672L1.435,1.992H4.244L1.971,3.643Z" transform="translate(-1.435 9.367)"/><path class="f" d="M2.839.972l.868,2.672L1.435,1.992H4.244L1.971,3.643Z" transform="translate(-1.435 14.536)"/></g></g><g transform="translate(12.16)"><path class="f" d="M2.839.972l.868,2.672L1.435,1.992H4.244L1.971,3.643Z" transform="translate(-1.435 -0.972)"/><path class="f" d="M2.839.972l.868,2.672L1.435,1.992H4.244L1.971,3.643Z" transform="translate(-1.435 4.198)"/><path class="f" d="M2.839.972l.868,2.672L1.435,1.992H4.244L1.971,3.643Z" transform="translate(-1.435 9.367)"/><path class="f" d="M2.839.972l.868,2.672L1.435,1.992H4.244L1.971,3.643Z" transform="translate(-1.435 14.536)"/><path class="f" d="M2.839.972l.868,2.672L1.435,1.992H4.244L1.971,3.643Z" transform="translate(-1.435 19.705)"/><g transform="translate(3.04 2.585)"><path class="f" d="M2.839.972l.868,2.672L1.435,1.992H4.244L1.971,3.643Z" transform="translate(-1.435 -0.972)"/><path class="f" d="M2.839.972l.868,2.672L1.435,1.992H4.244L1.971,3.643Z" transform="translate(-1.435 4.198)"/><path class="f" d="M2.839.972l.868,2.672L1.435,1.992H4.244L1.971,3.643Z" transform="translate(-1.435 9.367)"/><path class="f" d="M2.839.972l.868,2.672L1.435,1.992H4.244L1.971,3.643Z" transform="translate(-1.435 14.536)"/></g><g transform="translate(6.08)"><path class="f" d="M2.839.972l.868,2.672L1.435,1.992H4.244L1.971,3.643Z" transform="translate(-1.435 -0.972)"/><path class="f" d="M2.839.972l.868,2.672L1.435,1.992H4.244L1.971,3.643Z" transform="translate(-1.435 4.198)"/><path class="f" d="M2.839.972l.868,2.672L1.435,1.992H4.244L1.971,3.643Z" transform="translate(-1.435 9.367)"/><path class="f" d="M2.839.972l.868,2.672L1.435,1.992H4.244L1.971,3.643Z" transform="translate(-1.435 14.536)"/><path class="f" d="M2.839.972l.868,2.672L1.435,1.992H4.244L1.971,3.643Z" transform="translate(-1.435 19.705)"/><g transform="translate(3.04 2.585)"><path class="f" d="M2.839.972l.868,2.672L1.435,1.992H4.244L1.971,3.643Z" transform="translate(-1.435 -0.972)"/><path class="f" d="M2.839.972l.868,2.672L1.435,1.992H4.244L1.971,3.643Z" transform="translate(-1.435 4.198)"/><path class="f" d="M2.839.972l.868,2.672L1.435,1.992H4.244L1.971,3.643Z" transform="translate(-1.435 9.367)"/><path class="f" d="M2.839.972l.868,2.672L1.435,1.992H4.244L1.971,3.643Z" transform="translate(-1.435 14.536)"/></g></g></g><g transform="translate(24.32)"><path class="f" d="M2.839.972l.868,2.672L1.435,1.992H4.244L1.971,3.643Z" transform="translate(-1.435 -0.972)"/><path class="f" d="M2.839.972l.868,2.672L1.435,1.992H4.244L1.971,3.643Z" transform="translate(-1.435 4.198)"/><path class="f" d="M2.839.972l.868,2.672L1.435,1.992H4.244L1.971,3.643Z" transform="translate(-1.435 9.367)"/><path class="f" d="M2.839.972l.868,2.672L1.435,1.992H4.244L1.971,3.643Z" transform="translate(-1.435 14.536)"/><path class="f" d="M2.839.972l.868,2.672L1.435,1.992H4.244L1.971,3.643Z" transform="translate(-1.435 19.705)"/><g transform="translate(3.04 2.585)"><path class="f" d="M2.839.972l.868,2.672L1.435,1.992H4.244L1.971,3.643Z" transform="translate(-1.435 -0.972)"/><path class="f" d="M2.839.972l.868,2.672L1.435,1.992H4.244L1.971,3.643Z" transform="translate(-1.435 4.198)"/><path class="f" d="M2.839.972l.868,2.672L1.435,1.992H4.244L1.971,3.643Z" transform="translate(-1.435 9.367)"/><path class="f" d="M2.839.972l.868,2.672L1.435,1.992H4.244L1.971,3.643Z" transform="translate(-1.435 14.536)"/></g></g><g transform="translate(30.4)"><g transform="translate(0)"><path class="f" d="M2.839.972l.868,2.672L1.435,1.992H4.244L1.971,3.643Z" transform="translate(-1.435 -0.972)"/><path class="f" d="M2.839.972l.868,2.672L1.435,1.992H4.244L1.971,3.643Z" transform="translate(-1.435 4.198)"/><path class="f" d="M2.839.972l.868,2.672L1.435,1.992H4.244L1.971,3.643Z" transform="translate(-1.435 9.367)"/><path class="f" d="M2.839.972l.868,2.672L1.435,1.992H4.244L1.971,3.643Z" transform="translate(-1.435 14.536)"/></g><path class="f" d="M2.839.972l.868,2.672L1.435,1.992H4.244L1.971,3.643Z" transform="translate(-1.435 19.705)"/></g></g></g></g></svg>