<svg width="65" height="21" viewBox="0 0 65 21" fill="none" xmlns="http://www.w3.org/2000/svg">
<path d="M27.9018 20.5356H22.6555L25.9425 0.36403H31.1995L27.9018 20.5356ZM18.2336 0.36403L13.2229 14.24L12.634 11.2528L10.8674 2.18418C10.6532 1.01714 9.56114 0.214136 8.37269 0.36403H0.0963611L0 0.69594C1.93793 1.17774 3.7902 1.95934 5.49257 2.99789L10.0537 20.5249H15.5248L23.8761 0.353323L18.2336 0.36403ZM59.5403 20.5356H64.3584L60.1613 0.36403H55.9429C54.8936 0.278376 53.9193 0.888662 53.5231 1.86298L45.6751 20.5249H51.1462L52.2383 17.527H58.9193L59.5403 20.5356ZM53.7587 13.3942L56.521 5.8459L58.0735 13.3942H53.7587V13.3942ZM46.0819 5.2142L46.8314 0.877955C45.311 0.33191 43.7157 0.0428271 42.1097 0C39.508 0 33.3195 1.13492 33.3195 6.68102C33.3195 11.8952 40.5787 11.9595 40.5787 14.6897C40.5787 17.4199 34.0582 16.9381 31.9169 15.2143L31.1353 19.7433C33.009 20.5249 35.0325 20.921 37.0668 20.8782C40.6536 20.8782 46.0605 19.0259 46.0605 13.9723C46.0605 8.72602 38.7264 8.24421 38.7264 5.96367C38.7264 3.68313 43.8442 3.97221 46.0819 5.2142Z" fill="#213548"/>
<path d="M12.634 11.2525L10.8674 2.18384C10.6532 1.0168 9.56114 0.21379 8.37269 0.363685H0.0963611L0 0.695594C2.848 1.42365 5.51399 2.75129 7.79453 4.61427C9.968 6.35947 11.6383 8.64002 12.634 11.2525Z" fill="#445E77"/>
</svg>
