<svg width="102" height="26" viewBox="0 0 102 26" fill="none" xmlns="http://www.w3.org/2000/svg">
<path d="M101.253 15.0317V15.1495H101.36C101.382 15.1495 101.403 15.1495 101.414 15.1388C101.425 15.1281 101.435 15.1066 101.435 15.0959C101.435 15.0745 101.425 15.0638 101.414 15.0531C101.392 15.0424 101.371 15.0424 101.36 15.0424L101.253 15.0317ZM101.371 14.946C101.414 14.946 101.467 14.9567 101.5 14.9889C101.532 15.0103 101.553 15.0531 101.542 15.0959C101.542 15.1281 101.532 15.1602 101.51 15.1816C101.478 15.203 101.446 15.2244 101.403 15.2244L101.553 15.3957H101.446L101.318 15.2351H101.275V15.3957H101.178V14.9567L101.371 14.946ZM101.339 15.5349C101.392 15.5349 101.435 15.5242 101.478 15.5028C101.521 15.4814 101.564 15.46 101.596 15.4278C101.628 15.3957 101.66 15.3529 101.671 15.3101C101.746 15.1174 101.66 14.9032 101.478 14.8283C101.435 14.8069 101.382 14.7961 101.339 14.7961C101.285 14.7961 101.243 14.8069 101.189 14.8283C101.146 14.8497 101.103 14.8711 101.071 14.9032C100.964 15.0103 100.932 15.1709 100.996 15.3101C101.018 15.3529 101.039 15.3957 101.071 15.4278C101.103 15.46 101.146 15.4921 101.189 15.5028C101.243 15.5349 101.285 15.5456 101.339 15.5349ZM101.339 14.6998C101.467 14.6998 101.585 14.7533 101.682 14.839C101.821 14.9782 101.864 15.1816 101.789 15.3636C101.767 15.4171 101.724 15.4707 101.682 15.5135C101.639 15.5563 101.585 15.5992 101.532 15.6206C101.467 15.642 101.403 15.6634 101.339 15.6634C101.275 15.6634 101.21 15.6527 101.146 15.6206C101.028 15.5777 100.932 15.4814 100.889 15.3636C100.814 15.1816 100.857 14.9782 100.996 14.839C101.039 14.7961 101.093 14.7533 101.157 14.7319C101.21 14.6998 101.275 14.6891 101.339 14.6998ZM56.6382 12.9867C56.681 12.1837 57.3662 11.5734 58.1693 11.6269C58.9723 11.6698 59.5825 12.355 59.529 13.158C59.4862 13.9182 58.8545 14.5178 58.0836 14.5285C57.2913 14.5392 56.6382 13.9075 56.6275 13.1152C56.6382 13.0617 56.6382 13.0295 56.6382 12.9867ZM60.514 12.9867V10.5991H59.4755V11.188C59.1115 10.7276 58.5547 10.4599 57.9658 10.4813C56.5739 10.5563 55.5033 11.734 55.5782 13.1259C55.6425 14.4214 56.6703 15.4493 57.9658 15.5135C58.5547 15.5349 59.1222 15.278 59.4755 14.8069V15.385H60.514V12.9867ZM95.7286 12.9867C95.7714 12.1837 96.4567 11.5734 97.2597 11.6269C98.0627 11.6698 98.673 12.355 98.6194 13.158C98.5766 13.9182 97.9449 14.5178 97.174 14.5285C96.3817 14.5392 95.7286 13.9075 95.7179 13.1152C95.7179 13.0617 95.7179 13.0295 95.7286 12.9867ZM99.6045 12.9867V8.67188H98.5659V11.1773C98.2019 10.7169 97.6451 10.4492 97.0562 10.4706C95.6644 10.5456 94.5937 11.7233 94.6686 13.1152C94.7329 14.4107 95.7607 15.4386 97.0562 15.5028C97.6451 15.5242 98.2126 15.2672 98.5659 14.7961V15.3743H99.6045V12.9867ZM73.4478 11.4021C74.1009 11.3914 74.647 11.9053 74.6577 12.5691H72.1737C72.2165 11.8946 72.784 11.3807 73.4478 11.4021ZM73.4692 10.4706C72.0774 10.5456 71.0174 11.734 71.0923 13.1152C71.1566 14.4321 72.2272 15.4707 73.5442 15.5028C74.2615 15.5242 74.9575 15.2887 75.5035 14.8283L74.9896 14.0574C74.5934 14.3786 74.1009 14.5499 73.5977 14.5606C72.8804 14.6248 72.2487 14.1002 72.163 13.3829H75.7177C75.7284 13.2544 75.7391 13.1259 75.7391 12.9867C75.8568 11.7233 74.9361 10.5991 73.6727 10.4813C73.6084 10.4706 73.5442 10.4706 73.4692 10.4706ZM86.0497 12.9867C86.0925 12.1837 86.7777 11.5734 87.5808 11.6269C88.3838 11.6698 88.994 12.355 88.9405 13.158C88.8977 13.9182 88.266 14.5178 87.4951 14.5285C86.7028 14.5392 86.0497 13.9075 86.039 13.1152C86.0497 13.0617 86.0497 13.0188 86.0497 12.9867ZM89.9255 12.9867V10.5991H88.887V11.188C88.5229 10.7276 87.9662 10.4599 87.3773 10.4813C85.9854 10.5563 84.9148 11.734 84.9897 13.1259C85.054 14.4214 86.0818 15.4493 87.3773 15.5135C87.9662 15.5349 88.5337 15.278 88.887 14.8069V15.385H89.9255V12.9867ZM80.1717 12.9867C80.1181 14.325 81.1567 15.4493 82.495 15.5028C82.57 15.5028 82.6556 15.5028 82.7306 15.5028C83.3516 15.5349 83.9726 15.3315 84.4544 14.9353L83.9512 14.0895C83.5871 14.3679 83.1482 14.5178 82.6985 14.5178C81.8526 14.4642 81.2102 13.7362 81.2638 12.8796C81.3173 12.1087 81.9276 11.4985 82.6985 11.4449C83.1482 11.4449 83.5871 11.5948 83.9512 11.8732L84.4544 11.0274C83.9726 10.6312 83.3623 10.4278 82.7306 10.4599C81.3922 10.385 80.2573 11.4021 80.1717 12.7404C80.161 12.8154 80.161 12.901 80.1717 12.9867ZM93.598 10.4599C93.084 10.4492 92.5915 10.7169 92.3346 11.1666V10.5884H91.3067V15.3743H92.3453V12.6869C92.3453 11.8946 92.6879 11.4556 93.3624 11.4556C93.5873 11.4556 93.8121 11.4985 94.0155 11.5734L94.3367 10.5884C94.1012 10.5027 93.8549 10.4599 93.598 10.4599ZM65.6747 10.9631C65.0858 10.6098 64.4113 10.4385 63.7261 10.4599C62.5162 10.4599 61.7346 11.0381 61.7346 11.991C61.7346 12.7726 62.3128 13.2544 63.3835 13.4043L63.876 13.4685C64.4434 13.5435 64.7218 13.7041 64.7218 13.9717C64.7218 14.3465 64.3471 14.5499 63.6297 14.5499C63.0623 14.5713 62.4948 14.3893 62.0344 14.0467L61.5419 14.8604C62.1522 15.2887 62.8802 15.5028 63.619 15.4814C65.0002 15.4814 65.8032 14.8283 65.8032 13.9182C65.8032 13.0724 65.1715 12.6334 64.1329 12.4835L63.6404 12.4085C63.1907 12.355 62.8267 12.2586 62.8267 11.9374C62.8267 11.5841 63.1693 11.3807 63.7368 11.3807C64.2614 11.3914 64.7753 11.5306 65.2357 11.7875L65.6747 10.9631ZM79.1117 10.4599C78.5978 10.4492 78.1053 10.7169 77.8483 11.1666V10.5884H76.8205V15.3743H77.859V12.6869C77.859 11.8946 78.2016 11.4556 78.8761 11.4556C79.101 11.4556 79.3258 11.4985 79.5293 11.5734L79.8505 10.5884C79.6149 10.5134 79.3687 10.4599 79.1117 10.4599ZM70.2251 10.5884H68.5227V9.13227H67.4734V10.5884H66.4991V11.5413H67.4734V13.7255C67.4734 14.839 67.9017 15.5028 69.133 15.5028C69.5934 15.5028 70.0431 15.3743 70.4392 15.1281L70.1394 14.2287C69.861 14.4 69.5398 14.4857 69.2186 14.4964C68.694 14.4964 68.5334 14.1752 68.5334 13.6933V11.5306H70.2358L70.2251 10.5884ZM54.6467 15.3743V12.3657C54.711 11.3807 53.9722 10.5349 52.9872 10.4599C52.9122 10.4492 52.8373 10.4492 52.7516 10.4599C52.0771 10.4171 51.4347 10.749 51.0707 11.3164C50.7388 10.7597 50.1285 10.4278 49.4861 10.4599C48.9293 10.4278 48.394 10.7062 48.0835 11.1773V10.5884H47.0449V15.3743H48.0942V12.719C48.0085 12.1087 48.4368 11.5413 49.0471 11.4556C49.122 11.4449 49.197 11.4449 49.2719 11.4449C49.9679 11.4449 50.3105 11.8946 50.3105 12.7083V15.3743H51.3597V12.719C51.2848 12.098 51.7131 11.5306 52.3341 11.4556C52.3983 11.4449 52.4733 11.4449 52.5375 11.4449C53.2441 11.4449 53.5868 11.8946 53.5868 12.7083V15.3743H54.6467Z" fill="#213548"/>
<path d="M25.7275 22.3343H14.7852V2.66602H25.7275V22.3343V22.3343Z" fill="#213548"/>
<path d="M15.4712 12.5054C15.4712 8.67236 17.2271 5.04277 20.2464 2.67657C14.818 -1.59543 6.94857 -0.653237 2.67657 4.7858C-1.59543 10.2248 -0.653237 18.0836 4.7858 22.3556C9.32547 25.921 15.7067 25.921 20.2464 22.3556C17.2271 19.968 15.4605 16.3384 15.4712 12.5054Z" fill="#213548"/>
<path d="M40.4936 12.506C40.4936 19.4119 34.894 25.0115 27.9881 25.0222C25.1829 25.0222 22.4634 24.08 20.2578 22.3455C25.6861 18.0735 26.6283 10.204 22.3563 4.7757C21.7461 3.9941 21.0394 3.28746 20.2578 2.67717C25.6969 -1.59483 33.5556 -0.641928 37.8276 4.7864C39.5514 6.98129 40.4829 9.70081 40.4936 12.506Z" fill="#4D6982"/>
</svg>
