<svg width="88" height="23" viewBox="0 0 88 23" fill="none" xmlns="http://www.w3.org/2000/svg">
<path d="M16.0788 1.68096C15.0509 0.503218 13.1879 0 10.8003 0H3.87304C3.38052 0 2.97367 0.353324 2.88801 0.835129L0.00789121 19.1223C-0.0456426 19.4435 0.179199 19.754 0.500402 19.7968C0.532522 19.7968 0.564642 19.8075 0.596763 19.8075H4.86877L5.93944 12.998L5.90732 13.2122C5.98227 12.7304 6.39983 12.377 6.88164 12.377H8.91592C12.9095 12.377 16.0252 10.7603 16.946 6.07074C16.9781 5.93155 16.9995 5.79236 17.0209 5.66388C17.3743 4.2613 17.0317 2.77305 16.0788 1.68096Z" fill="#57748D"/>
<path d="M68.403 10.3751C68.146 12.0882 66.8291 12.0882 65.5657 12.0882H64.8483L65.3515 8.88686C65.3837 8.69414 65.5443 8.55495 65.7477 8.55495H66.0796C66.9468 8.55495 67.7606 8.55495 68.1781 9.04746C68.4351 9.43291 68.5207 9.92542 68.403 10.3751ZM67.8462 5.89967H63.071C62.7391 5.89967 62.4607 6.13522 62.4179 6.45643L60.4907 18.7157C60.4585 18.9298 60.6084 19.1332 60.8226 19.1654C60.844 19.1654 60.8654 19.1654 60.8868 19.1654H63.3387C63.5635 19.1654 63.7669 18.9941 63.7991 18.7692L64.3451 15.2895C64.3986 14.9683 64.677 14.7328 64.9982 14.7328H66.5079C69.6557 14.7328 71.4758 13.2124 71.9469 10.1931C72.2146 9.12241 71.9897 7.9982 71.3366 7.10954C70.4051 6.22088 69.131 5.7819 67.8462 5.89967Z" fill="#213548"/>
<path d="M34.3122 10.3751C34.0552 12.0882 32.7383 12.0882 31.4749 12.0882H30.7575L31.2608 8.88685C31.2929 8.69413 31.4535 8.55494 31.6569 8.55494H31.9888C32.8561 8.55494 33.6698 8.55494 34.0873 9.04745C34.355 9.43289 34.4407 9.92541 34.3122 10.3751ZM33.7661 5.89966H28.9909C28.659 5.89966 28.3806 6.13521 28.3378 6.45641L26.4106 18.7157C26.3785 18.9298 26.5284 19.1332 26.7425 19.1653C26.7639 19.1653 26.7853 19.1653 26.8067 19.1653H29.0873C29.4192 19.1653 29.6869 18.9298 29.7404 18.6086L30.265 15.3002C30.3186 14.979 30.5969 14.7435 30.9181 14.7435H32.4278C35.5756 14.7435 37.3957 13.2231 37.8668 10.2038C38.1345 9.13311 37.9097 8.00889 37.2565 7.12023C36.3251 6.22086 35.0509 5.78189 33.7661 5.89966ZM44.8584 14.7756C44.6763 16.0497 43.5628 16.9919 42.278 16.9598C41.3037 17.0561 40.4365 16.3495 40.3294 15.3752C40.308 15.161 40.3294 14.9362 40.3829 14.7327C40.5649 13.4586 41.6677 12.5164 42.9525 12.5272C43.5307 12.495 44.0875 12.7199 44.4729 13.1481C44.8369 13.6085 44.9868 14.1974 44.8584 14.7756ZM48.0597 10.3108H45.7684C45.5757 10.3108 45.4044 10.45 45.3723 10.6535L45.2759 11.2959L45.1153 11.0603C44.4087 10.343 43.4129 9.97894 42.4065 10.0967C39.794 10.1502 37.6206 12.1096 37.2994 14.7006C37.0531 15.9426 37.3743 17.2274 38.1559 18.2124C38.8947 19.0262 39.9547 19.4544 41.0467 19.3795C42.2352 19.3902 43.3701 18.9191 44.2052 18.0733L44.0982 18.705C44.0661 18.9191 44.2159 19.1225 44.4301 19.1546C44.4515 19.1546 44.4729 19.1546 44.4943 19.1546H46.55C46.8819 19.1546 47.1603 18.9191 47.2031 18.5979L48.4451 10.7605C48.4772 10.5464 48.3273 10.343 48.1132 10.3001C48.0918 10.3001 48.0704 10.3001 48.049 10.3001" fill="#213548"/>
<path d="M78.9498 14.7759C78.7678 16.05 77.6543 16.9922 76.3695 16.9601C75.3951 17.0565 74.5279 16.3498 74.4208 15.3755C74.3994 15.1614 74.4208 14.9365 74.4744 14.7331C74.6564 13.459 75.7592 12.5168 77.044 12.5275C77.6222 12.4954 78.1789 12.7202 78.5751 13.1485C78.9284 13.6196 79.0676 14.2085 78.9498 14.7759ZM82.1404 10.3219H79.8492C79.6564 10.3219 79.4851 10.4611 79.453 10.6645L79.3567 11.3069L79.196 11.0714C78.4894 10.354 77.4937 9.99 76.4872 10.1078C73.8748 10.1613 71.7013 12.1206 71.3801 14.7117C71.1339 15.9537 71.4551 17.2385 72.2366 18.2235C72.9754 19.0265 74.0354 19.4548 75.1168 19.3905C76.3052 19.4012 77.4508 18.9301 78.286 18.0843L78.1789 18.716C78.1468 18.9301 78.286 19.1336 78.5108 19.1657C78.5322 19.1657 78.5536 19.1657 78.5751 19.1657H80.6308C80.9627 19.1657 81.241 18.9301 81.2839 18.6089L82.5259 10.7716C82.558 10.5575 82.4081 10.354 82.1939 10.3219C82.1832 10.3219 82.1618 10.3219 82.1404 10.3219Z" fill="#213548"/>
<path d="M60.2333 10.3223H57.9314C57.7065 10.3223 57.5031 10.4293 57.3853 10.6113L54.2161 15.2795L52.8671 10.7934C52.7814 10.515 52.5244 10.3223 52.2354 10.3223H49.9762C49.7514 10.3223 49.5801 10.5043 49.5801 10.7184C49.5801 10.7612 49.5908 10.8041 49.6015 10.8469L52.1283 18.2774L49.7514 21.6393C49.6229 21.8213 49.6657 22.0676 49.8477 22.1961C49.912 22.2389 49.9976 22.271 50.0726 22.271H52.3745C52.5887 22.271 52.7921 22.164 52.9206 21.9819L60.5652 10.9433C60.6937 10.7612 60.6509 10.515 60.4689 10.3865C60.3939 10.3544 60.3083 10.3223 60.2333 10.3223Z" fill="#213548"/>
<path d="M84.827 6.24301L82.8676 18.7164C82.8355 18.9305 82.9854 19.134 83.1995 19.1768C83.2209 19.1768 83.2424 19.1768 83.2638 19.1768H85.2338C85.5657 19.1768 85.8441 18.9412 85.8869 18.62L87.8249 6.36078C87.857 6.14665 87.7071 5.94322 87.4929 5.90039C87.4715 5.90039 87.4501 5.90039 87.4287 5.90039H85.2231C85.0304 5.90039 84.8591 6.05029 84.827 6.24301Z" fill="#213548"/>
<path d="M17.0204 5.66406C16.999 5.80325 16.9776 5.93173 16.9455 6.07092C16.0354 10.7605 12.909 12.3772 8.91541 12.3772H6.88112C6.39932 12.3772 5.98175 12.7305 5.9068 13.2123L4.86825 19.8077L4.56846 21.6814C4.52563 21.9705 4.71835 22.2274 4.99673 22.281C5.02885 22.281 5.05026 22.2917 5.08238 22.2917H8.69056C9.11884 22.2917 9.48286 21.9812 9.54711 21.5636L9.57923 21.3816L10.2538 17.0775L10.2966 16.8419C10.3608 16.4244 10.7248 16.1139 11.1531 16.1139H11.6885C15.1789 16.1139 17.9091 14.7006 18.7121 10.5999C19.1404 9.17588 18.8727 7.64481 17.9947 6.44566C17.7164 6.11375 17.3845 5.85678 17.0204 5.66406Z" fill="#213548"/>
</svg>
