<svg width="79" height="19" viewBox="0 0 79 19" fill="none" xmlns="http://www.w3.org/2000/svg">
<path d="M62.9451 15.3642L60.1827 18.0195H15.7925L14.4541 15.1822H12.0986L10.8781 18.0195H0L8.58683 0H29.1224L31.1888 3.98292L33.1267 0H60.8037L63.1699 2.47326L65.7074 0H78.5556L69.4334 8.98298L78.1594 18.0195H65.7181L62.9451 15.3642ZM62.9558 11.2207L67.2278 15.4392H71.2214L65.1186 8.92945L71.3927 2.56962H67.2278L63.0843 6.73456L59.2191 2.56962H43.7264V15.4392H58.7052L62.9558 11.2207ZM37.4523 5.14996V15.4392H40.7714V2.56962H35.3645L31.2959 11.1886L26.9168 2.56962H21.5099V15.0537L15.921 2.56962H10.8567L4.88229 15.4392H8.53329L9.74316 12.5055H16.6919L18.0837 15.4392H24.7969V4.96794L29.5614 15.4392H32.6985L37.4523 5.14996ZM54.9257 12.8695H47.0455V10.0322H54.9257V7.46262H47.0455V5.14996H54.9257V2.96578L60.7716 8.81167L54.9257 14.679V12.8695ZM10.8567 9.91447L13.2978 4.68956L15.5569 9.91447H10.8567Z" fill="#213548"/>
</svg>
