<svg width="113" height="25" viewBox="0 0 113 25" fill="none" xmlns="http://www.w3.org/2000/svg">
<path d="M34.5459 10.1035C33.1787 10.1035 32.1693 9.74805 31.5176 9.03711C30.8704 8.32617 30.5469 7.22103 30.5469 5.72168C30.5469 2.83691 31.9004 1.39453 34.6074 1.39453C34.9766 1.39453 35.3594 1.43099 35.7559 1.50391C36.1523 1.57682 36.4827 1.67936 36.7471 1.81152C37.016 1.93913 37.1504 2.08268 37.1504 2.24219C37.1504 2.35612 37.1048 2.50651 37.0137 2.69336C36.9225 2.87565 36.8132 3.03743 36.6855 3.17871C36.5625 3.31999 36.4531 3.39062 36.3574 3.39062C36.3346 3.39062 36.2731 3.36784 36.1729 3.32227C35.9541 3.23112 35.724 3.15592 35.4824 3.09668C35.2454 3.03288 34.9424 3.00098 34.5732 3.00098C33.8577 3.00098 33.3268 3.22884 32.9805 3.68457C32.6387 4.13574 32.4678 4.81934 32.4678 5.73535C32.4678 6.65137 32.641 7.3418 32.9873 7.80664C33.3337 8.27148 33.8532 8.50391 34.5459 8.50391C34.9059 8.50391 35.2181 8.46745 35.4824 8.39453C35.7513 8.32161 36.0133 8.22819 36.2686 8.11426C36.2822 8.1097 36.3232 8.09375 36.3916 8.06641C36.46 8.03451 36.5101 8.01855 36.542 8.01855C36.6605 8.01855 36.7744 8.08919 36.8838 8.23047C36.9932 8.36719 37.082 8.52441 37.1504 8.70215C37.2188 8.87533 37.2529 9.00065 37.2529 9.07812C37.2529 9.30143 37.1025 9.49056 36.8018 9.64551C36.5055 9.80046 36.1455 9.91667 35.7217 9.99414C35.3024 10.0671 34.9105 10.1035 34.5459 10.1035Z" fill="#213548"/>
<path d="M39.0166 10.0215C38.5335 10.0215 38.292 9.89388 38.292 9.63867V5.7832C38.292 5.19987 38.2533 4.71452 38.1758 4.32715C38.153 4.2041 38.1416 4.11751 38.1416 4.06738C38.1416 3.97624 38.2259 3.90332 38.3945 3.84863C38.5677 3.78939 38.7614 3.74609 38.9756 3.71875C39.1943 3.69141 39.3698 3.67773 39.502 3.67773C39.6432 3.67773 39.7412 3.73014 39.7959 3.83496C39.8551 3.93978 39.9076 4.09245 39.9531 4.29297L39.9941 4.4707C40.1491 4.18815 40.3268 3.96484 40.5273 3.80078C40.7324 3.63216 40.9945 3.54785 41.3135 3.54785C41.5778 3.54785 41.7601 3.61621 41.8604 3.75293C41.9606 3.88509 42.0107 4.03548 42.0107 4.2041C42.0107 4.29525 41.9948 4.42513 41.9629 4.59375C41.931 4.75781 41.8854 4.90365 41.8262 5.03125C41.7669 5.15885 41.7008 5.22266 41.6279 5.22266C41.5778 5.22266 41.5026 5.20898 41.4023 5.18164C41.2656 5.14518 41.1494 5.12695 41.0537 5.12695C40.8304 5.12695 40.6344 5.19076 40.4658 5.31836C40.3018 5.44141 40.1764 5.5804 40.0898 5.73535V9.63867C40.0898 9.89388 39.8438 10.0215 39.3516 10.0215H39.0166Z" fill="#213548"/>
<path d="M44.0684 12.5098C43.5807 12.5098 43.3369 12.4232 43.3369 12.25C43.3369 12.1816 43.3529 12.1087 43.3848 12.0312L44.1572 10.001L42.1475 4.1084C42.1429 4.08105 42.1338 4.0446 42.1201 3.99902C42.1064 3.94889 42.0996 3.91243 42.0996 3.88965C42.0996 3.7985 42.1589 3.73242 42.2773 3.69141C42.3958 3.64583 42.5827 3.62305 42.8379 3.62305H43.2344C43.4258 3.62305 43.5785 3.64355 43.6924 3.68457C43.8109 3.72103 43.8838 3.78483 43.9111 3.87598L44.6221 6.11816C44.6676 6.25944 44.7246 6.4873 44.793 6.80176C44.8613 7.11165 44.9023 7.29622 44.916 7.35547L44.9639 7.58789H45.0186C45.0231 7.55599 45.0345 7.50814 45.0527 7.44434C45.2031 6.71517 45.3057 6.27311 45.3604 6.11816L46.0713 3.87598C46.1032 3.78027 46.1761 3.71419 46.29 3.67773C46.4085 3.64128 46.5635 3.62305 46.7549 3.62305H47.0488C47.2995 3.62305 47.4818 3.64583 47.5957 3.69141C47.7142 3.73242 47.7734 3.7985 47.7734 3.88965C47.7734 3.93522 47.762 4.00814 47.7393 4.1084L44.9502 12.25C44.891 12.4232 44.6654 12.5098 44.2734 12.5098H44.0684Z" fill="#213548"/>
<path d="M49.4141 12.5098C49.1634 12.5098 48.9788 12.4756 48.8604 12.4072C48.7419 12.3434 48.6826 12.2454 48.6826 12.1133V5.7832C48.6826 5.41862 48.6712 5.13379 48.6484 4.92871C48.6302 4.71908 48.6051 4.51855 48.5732 4.32715C48.5505 4.2041 48.5391 4.11751 48.5391 4.06738C48.5391 3.97624 48.6234 3.90332 48.792 3.84863C48.9606 3.78939 49.152 3.74609 49.3662 3.71875C49.585 3.69141 49.7604 3.67773 49.8926 3.67773C50.0384 3.67773 50.1387 3.73242 50.1934 3.8418C50.2526 3.94661 50.305 4.09928 50.3506 4.2998L50.3848 4.45703C50.526 4.18815 50.7402 3.9694 51.0273 3.80078C51.319 3.63216 51.6471 3.54785 52.0117 3.54785C52.4538 3.54785 52.8457 3.67546 53.1875 3.93066C53.5293 4.18587 53.7959 4.56185 53.9873 5.05859C54.1833 5.55078 54.2812 6.14095 54.2812 6.8291C54.2812 7.48991 54.181 8.06641 53.9805 8.55859C53.7799 9.05078 53.4883 9.43132 53.1055 9.7002C52.7227 9.96908 52.2624 10.1035 51.7246 10.1035C51.2643 10.1035 50.8473 9.97591 50.4736 9.7207V12.1133C50.4736 12.2454 50.4144 12.3434 50.2959 12.4072C50.182 12.4756 49.9997 12.5098 49.749 12.5098H49.4141ZM51.3281 8.6748C52.0801 8.6748 52.4561 8.05957 52.4561 6.8291C52.4561 5.62142 52.1302 5.01758 51.4785 5.01758C51.0957 5.01758 50.7607 5.25684 50.4736 5.73535V8.44238C50.7562 8.59733 51.041 8.6748 51.3281 8.6748Z" fill="#213548"/>
<path d="M57.5146 10.1035C56.9359 10.1035 56.4938 9.94173 56.1885 9.61816C55.8877 9.29004 55.7373 8.79329 55.7373 8.12793V5.06543H55.5459C55.4183 5.06543 55.3249 5.01758 55.2656 4.92188C55.2109 4.82617 55.1836 4.67122 55.1836 4.45703V4.25195C55.1836 4.03776 55.2109 3.88281 55.2656 3.78711C55.3249 3.69141 55.4183 3.64355 55.5459 3.64355H55.7373L55.8945 2.48828C55.931 2.23307 56.1497 2.10547 56.5508 2.10547H56.9336C57.1432 2.10547 57.2959 2.13737 57.3916 2.20117C57.4919 2.26497 57.542 2.36068 57.542 2.48828V3.64355H58.1367C58.2643 3.64355 58.3555 3.69141 58.4102 3.78711C58.4694 3.88281 58.499 4.03776 58.499 4.25195V4.45703C58.499 4.67122 58.4694 4.82617 58.4102 4.92188C58.3555 5.01758 58.2643 5.06543 58.1367 5.06543H57.542V8.14844C57.542 8.33529 57.5739 8.46973 57.6377 8.55176C57.7061 8.63379 57.8177 8.6748 57.9727 8.6748C58.0182 8.6748 58.0798 8.66797 58.1572 8.6543C58.2347 8.63607 58.2826 8.62695 58.3008 8.62695C58.3737 8.62695 58.4375 8.68848 58.4922 8.81152C58.5514 8.93001 58.597 9.06217 58.6289 9.20801C58.6654 9.35384 58.6836 9.45182 58.6836 9.50195C58.6836 9.90299 58.2939 10.1035 57.5146 10.1035Z" fill="#213548"/>
<path d="M62.4365 10.1035C61.4749 10.1035 60.7412 9.82096 60.2354 9.25586C59.734 8.69076 59.4834 7.87728 59.4834 6.81543C59.4834 5.75814 59.734 4.94922 60.2354 4.38867C60.7412 3.82812 61.4749 3.54785 62.4365 3.54785C63.3981 3.54785 64.1273 3.82812 64.624 4.38867C65.1253 4.94466 65.376 5.75358 65.376 6.81543C65.376 7.87728 65.1253 8.69076 64.624 9.25586C64.1273 9.82096 63.3981 10.1035 62.4365 10.1035ZM62.4365 8.6748C62.8193 8.6748 63.0996 8.51986 63.2773 8.20996C63.4596 7.90007 63.5508 7.43522 63.5508 6.81543C63.5508 6.2002 63.4596 5.73763 63.2773 5.42773C63.0996 5.11784 62.8193 4.96289 62.4365 4.96289C61.68 4.96289 61.3018 5.5804 61.3018 6.81543C61.3018 7.43066 61.3929 7.89551 61.5752 8.20996C61.762 8.51986 62.0492 8.6748 62.4365 8.6748Z" fill="#213548"/>
<path d="M69.457 10.1035C68.4225 10.1035 67.6546 9.83691 67.1533 9.30371C66.652 8.76595 66.4014 7.95247 66.4014 6.86328C66.4014 5.76497 66.6543 4.93783 67.1602 4.38184C67.666 3.82585 68.4544 3.54785 69.5254 3.54785C69.8307 3.54785 70.1383 3.58203 70.4482 3.65039C70.7627 3.71419 71.0225 3.8099 71.2275 3.9375C71.4372 4.06055 71.542 4.21094 71.542 4.38867C71.542 4.46159 71.501 4.57552 71.4189 4.73047C71.3415 4.88542 71.2503 5.02441 71.1455 5.14746C71.0452 5.26595 70.9609 5.3252 70.8926 5.3252C70.8607 5.3252 70.79 5.29329 70.6807 5.22949C70.5075 5.14746 70.3434 5.08366 70.1885 5.03809C70.0335 4.98796 69.8444 4.96289 69.6211 4.96289C69.1426 4.96289 68.7939 5.11556 68.5752 5.4209C68.3564 5.72168 68.2471 6.18652 68.2471 6.81543C68.2471 7.44889 68.3496 7.91829 68.5547 8.22363C68.7643 8.52441 69.097 8.6748 69.5527 8.6748C69.8034 8.6748 70.0221 8.64974 70.209 8.59961C70.3958 8.54492 70.5736 8.47656 70.7422 8.39453C70.7741 8.38086 70.8128 8.36491 70.8584 8.34668C70.904 8.32845 70.9382 8.31934 70.9609 8.31934C71.043 8.31934 71.1318 8.37858 71.2275 8.49707C71.3278 8.611 71.4121 8.74316 71.4805 8.89355C71.5534 9.04395 71.5898 9.16016 71.5898 9.24219C71.5898 9.45182 71.4531 9.62044 71.1797 9.74805C70.9062 9.87565 70.6009 9.9668 70.2637 10.0215C69.9264 10.0762 69.6576 10.1035 69.457 10.1035Z" fill="#213548"/>
<path d="M74.29 10.1035C73.6794 10.1035 73.2282 9.94401 72.9365 9.625C72.6449 9.30143 72.499 8.80241 72.499 8.12793V4.00586C72.499 3.87826 72.5583 3.78255 72.6768 3.71875C72.7952 3.65495 72.9798 3.62305 73.2305 3.62305H73.5654C73.8161 3.62305 74.0007 3.65495 74.1191 3.71875C74.2376 3.78255 74.2969 3.87826 74.2969 4.00586V7.85449C74.2969 8.10514 74.3538 8.29427 74.4678 8.42188C74.5817 8.54948 74.7686 8.61328 75.0283 8.61328C75.2516 8.61328 75.4453 8.54264 75.6094 8.40137C75.778 8.25553 75.9079 8.09147 75.999 7.90918V4.00586C75.999 3.87826 76.0583 3.78255 76.1768 3.71875C76.2952 3.65495 76.4798 3.62305 76.7305 3.62305H77.0654C77.3161 3.62305 77.5007 3.65495 77.6191 3.71875C77.7376 3.78255 77.7969 3.87826 77.7969 4.00586V7.85449C77.7969 8.2373 77.806 8.53809 77.8242 8.75684C77.847 8.97103 77.8743 9.17155 77.9062 9.3584C77.929 9.48145 77.9404 9.56803 77.9404 9.61816C77.9404 9.70931 77.8561 9.78451 77.6875 9.84375C77.5189 9.90299 77.3252 9.94629 77.1064 9.97363C76.8923 10.001 76.7191 10.0146 76.5869 10.0146C76.4411 10.0146 76.3363 9.95768 76.2725 9.84375C76.2132 9.72526 76.1654 9.55892 76.1289 9.34473L76.0947 9.17383C75.9033 9.43359 75.6458 9.65462 75.3223 9.83691C75.0033 10.0146 74.6592 10.1035 74.29 10.1035Z" fill="#213548"/>
<path d="M80.0322 10.0215C79.5492 10.0215 79.3076 9.89388 79.3076 9.63867V5.7832C79.3076 5.19987 79.2689 4.71452 79.1914 4.32715C79.1686 4.2041 79.1572 4.11751 79.1572 4.06738C79.1572 3.97624 79.2415 3.90332 79.4102 3.84863C79.5833 3.78939 79.777 3.74609 79.9912 3.71875C80.21 3.69141 80.3854 3.67773 80.5176 3.67773C80.6589 3.67773 80.7568 3.73014 80.8115 3.83496C80.8708 3.93978 80.9232 4.09245 80.9688 4.29297L81.0098 4.4707C81.1647 4.18815 81.3424 3.96484 81.543 3.80078C81.748 3.63216 82.0101 3.54785 82.3291 3.54785C82.5934 3.54785 82.7757 3.61621 82.876 3.75293C82.9762 3.88509 83.0264 4.03548 83.0264 4.2041C83.0264 4.29525 83.0104 4.42513 82.9785 4.59375C82.9466 4.75781 82.901 4.90365 82.8418 5.03125C82.7826 5.15885 82.7165 5.22266 82.6436 5.22266C82.5934 5.22266 82.5182 5.20898 82.418 5.18164C82.2812 5.14518 82.165 5.12695 82.0693 5.12695C81.846 5.12695 81.6501 5.19076 81.4814 5.31836C81.3174 5.44141 81.1921 5.5804 81.1055 5.73535V9.63867C81.1055 9.89388 80.8594 10.0215 80.3672 10.0215H80.0322Z" fill="#213548"/>
<path d="M84.4756 10.0215C83.9925 10.0215 83.751 9.89388 83.751 9.63867V5.7832C83.751 5.19987 83.7122 4.71452 83.6348 4.32715C83.612 4.2041 83.6006 4.11751 83.6006 4.06738C83.6006 3.97624 83.6849 3.90332 83.8535 3.84863C84.0267 3.78939 84.2204 3.74609 84.4346 3.71875C84.6533 3.69141 84.8288 3.67773 84.9609 3.67773C85.1022 3.67773 85.2002 3.73014 85.2549 3.83496C85.3141 3.93978 85.3665 4.09245 85.4121 4.29297L85.4531 4.4707C85.6081 4.18815 85.7858 3.96484 85.9863 3.80078C86.1914 3.63216 86.4535 3.54785 86.7725 3.54785C87.0368 3.54785 87.2191 3.61621 87.3193 3.75293C87.4196 3.88509 87.4697 4.03548 87.4697 4.2041C87.4697 4.29525 87.4538 4.42513 87.4219 4.59375C87.39 4.75781 87.3444 4.90365 87.2852 5.03125C87.2259 5.15885 87.1598 5.22266 87.0869 5.22266C87.0368 5.22266 86.9616 5.20898 86.8613 5.18164C86.7246 5.14518 86.6084 5.12695 86.5127 5.12695C86.2894 5.12695 86.0934 5.19076 85.9248 5.31836C85.7607 5.44141 85.6354 5.5804 85.5488 5.73535V9.63867C85.5488 9.89388 85.3027 10.0215 84.8105 10.0215H84.4756Z" fill="#213548"/>
<path d="M91.1201 10.1035C90.0537 10.1035 89.2585 9.81868 88.7344 9.24902C88.2103 8.6748 87.9482 7.87956 87.9482 6.86328C87.9482 5.7194 88.2103 4.88086 88.7344 4.34766C89.2585 3.81445 89.9808 3.54785 90.9014 3.54785C91.512 3.54785 92.0111 3.68685 92.3984 3.96484C92.7904 4.24284 93.0752 4.61654 93.2529 5.08594C93.4352 5.55534 93.5264 6.08626 93.5264 6.67871C93.5264 6.74707 93.4854 6.83822 93.4033 6.95215C93.3258 7.06608 93.237 7.16862 93.1367 7.25977C93.0365 7.35091 92.959 7.39648 92.9043 7.39648H89.8076C89.8486 7.86133 89.9854 8.19173 90.2178 8.3877C90.4548 8.5791 90.7829 8.6748 91.2021 8.6748C91.43 8.6748 91.6351 8.64974 91.8174 8.59961C92.0042 8.54492 92.2025 8.47428 92.4121 8.3877C92.5397 8.32845 92.6263 8.29883 92.6719 8.29883C92.7539 8.29883 92.8428 8.35807 92.9385 8.47656C93.0387 8.59049 93.123 8.72266 93.1914 8.87305C93.2643 9.02344 93.3008 9.13965 93.3008 9.22168C93.3008 9.40853 93.1732 9.56803 92.918 9.7002C92.6673 9.83236 92.3688 9.93262 92.0225 10.001C91.6807 10.0693 91.3799 10.1035 91.1201 10.1035ZM91.7764 6.2002C91.7764 5.8265 91.7035 5.52799 91.5576 5.30469C91.4118 5.07682 91.193 4.96289 90.9014 4.96289C90.2998 4.96289 89.9352 5.37533 89.8076 6.2002H91.7764Z" fill="#213548"/>
<path d="M95.4814 10.0215C94.9984 10.0215 94.7568 9.89388 94.7568 9.63867V5.7832C94.7568 5.19987 94.7181 4.71452 94.6406 4.32715C94.6178 4.2041 94.6064 4.11751 94.6064 4.06738C94.6064 3.97624 94.6908 3.90332 94.8594 3.84863C95.0326 3.78939 95.2262 3.74609 95.4404 3.71875C95.6592 3.69141 95.8346 3.67773 95.9668 3.67773C96.1081 3.67773 96.2061 3.73014 96.2607 3.83496C96.32 3.93978 96.3724 4.09245 96.418 4.29297L96.459 4.4707C96.6504 4.21549 96.9056 3.99902 97.2246 3.82129C97.5482 3.639 97.8945 3.54785 98.2637 3.54785C98.8743 3.54785 99.3255 3.70736 99.6172 4.02637C99.9089 4.34538 100.055 4.83984 100.055 5.50977V9.63867C100.055 9.89388 99.8086 10.0215 99.3164 10.0215H98.9814C98.4984 10.0215 98.2568 9.89388 98.2568 9.63867V5.7832C98.2568 5.53711 98.1976 5.35026 98.0791 5.22266C97.9652 5.09505 97.7783 5.03125 97.5186 5.03125C97.2998 5.03125 97.1061 5.10417 96.9375 5.25C96.7689 5.39583 96.6413 5.55762 96.5547 5.73535V9.63867C96.5547 9.89388 96.3086 10.0215 95.8164 10.0215H95.4814Z" fill="#213548"/>
<path d="M104.334 10.1035C103.299 10.1035 102.532 9.83691 102.03 9.30371C101.529 8.76595 101.278 7.95247 101.278 6.86328C101.278 5.76497 101.531 4.93783 102.037 4.38184C102.543 3.82585 103.331 3.54785 104.402 3.54785C104.708 3.54785 105.015 3.58203 105.325 3.65039C105.64 3.71419 105.899 3.8099 106.104 3.9375C106.314 4.06055 106.419 4.21094 106.419 4.38867C106.419 4.46159 106.378 4.57552 106.296 4.73047C106.218 4.88542 106.127 5.02441 106.022 5.14746C105.922 5.26595 105.838 5.3252 105.77 5.3252C105.738 5.3252 105.667 5.29329 105.558 5.22949C105.384 5.14746 105.22 5.08366 105.065 5.03809C104.91 4.98796 104.721 4.96289 104.498 4.96289C104.02 4.96289 103.671 5.11556 103.452 5.4209C103.233 5.72168 103.124 6.18652 103.124 6.81543C103.124 7.44889 103.227 7.91829 103.432 8.22363C103.641 8.52441 103.974 8.6748 104.43 8.6748C104.68 8.6748 104.899 8.64974 105.086 8.59961C105.273 8.54492 105.451 8.47656 105.619 8.39453C105.651 8.38086 105.69 8.36491 105.735 8.34668C105.781 8.32845 105.815 8.31934 105.838 8.31934C105.92 8.31934 106.009 8.37858 106.104 8.49707C106.205 8.611 106.289 8.74316 106.357 8.89355C106.43 9.04395 106.467 9.16016 106.467 9.24219C106.467 9.45182 106.33 9.62044 106.057 9.74805C105.783 9.87565 105.478 9.9668 105.141 10.0215C104.803 10.0762 104.535 10.1035 104.334 10.1035Z" fill="#213548"/>
<path d="M108.75 12.5098C108.262 12.5098 108.019 12.4232 108.019 12.25C108.019 12.1816 108.035 12.1087 108.066 12.0312L108.839 10.001L106.829 4.1084C106.825 4.08105 106.815 4.0446 106.802 3.99902C106.788 3.94889 106.781 3.91243 106.781 3.88965C106.781 3.7985 106.84 3.73242 106.959 3.69141C107.077 3.64583 107.264 3.62305 107.52 3.62305H107.916C108.107 3.62305 108.26 3.64355 108.374 3.68457C108.493 3.72103 108.565 3.78483 108.593 3.87598L109.304 6.11816C109.349 6.25944 109.406 6.4873 109.475 6.80176C109.543 7.11165 109.584 7.29622 109.598 7.35547L109.646 7.58789H109.7C109.705 7.55599 109.716 7.50814 109.734 7.44434C109.885 6.71517 109.987 6.27311 110.042 6.11816L110.753 3.87598C110.785 3.78027 110.858 3.71419 110.972 3.67773C111.09 3.64128 111.245 3.62305 111.437 3.62305H111.73C111.981 3.62305 112.163 3.64583 112.277 3.69141C112.396 3.73242 112.455 3.7985 112.455 3.88965C112.455 3.93522 112.444 4.00814 112.421 4.1084L109.632 12.25C109.573 12.4232 109.347 12.5098 108.955 12.5098H108.75Z" fill="#213548"/>
<path d="M31.3594 24.1504C31.1445 24.1504 30.9863 24.1211 30.8848 24.0625C30.7832 24.0078 30.7324 23.9238 30.7324 23.8105V18.3848C30.7324 18.0723 30.7227 17.8281 30.7031 17.6523C30.6875 17.4727 30.666 17.3008 30.6387 17.1367C30.6191 17.0312 30.6094 16.957 30.6094 16.9141C30.6094 16.8359 30.6816 16.7734 30.8262 16.7266C30.9707 16.6758 31.1348 16.6387 31.3184 16.6152C31.5059 16.5918 31.6562 16.5801 31.7695 16.5801C31.8945 16.5801 31.9805 16.627 32.0273 16.7207C32.0781 16.8105 32.123 16.9414 32.1621 17.1133L32.1914 17.248C32.3125 17.0176 32.4961 16.8301 32.7422 16.6855C32.9922 16.541 33.2734 16.4688 33.5859 16.4688C33.9648 16.4688 34.3008 16.5781 34.5938 16.7969C34.8867 17.0156 35.1152 17.3379 35.2793 17.7637C35.4473 18.1855 35.5312 18.6914 35.5312 19.2812C35.5312 19.8477 35.4453 20.3418 35.2734 20.7637C35.1016 21.1855 34.8516 21.5117 34.5234 21.7422C34.1953 21.9727 33.8008 22.0879 33.3398 22.0879C32.9453 22.0879 32.5879 21.9785 32.2676 21.7598V23.8105C32.2676 23.9238 32.2168 24.0078 32.1152 24.0625C32.0176 24.1211 31.8613 24.1504 31.6465 24.1504H31.3594ZM33 20.8633C33.6445 20.8633 33.9668 20.3359 33.9668 19.2812C33.9668 18.2461 33.6875 17.7285 33.1289 17.7285C32.8008 17.7285 32.5137 17.9336 32.2676 18.3438V20.6641C32.5098 20.7969 32.7539 20.8633 33 20.8633Z" fill="#213548"/>
<path d="M37.957 22.0879C37.4258 22.0879 37.0352 21.9492 36.7852 21.6719C36.5391 21.3906 36.416 21.0195 36.416 20.5586C36.416 20.2109 36.4883 19.8984 36.6328 19.6211C36.7773 19.3398 37.0703 19.1035 37.5117 18.9121C37.9531 18.7207 38.584 18.625 39.4043 18.625V18.2793C39.4043 18.0762 39.3398 17.9258 39.2109 17.8281C39.082 17.7305 38.877 17.6816 38.5957 17.6816C38.3613 17.6816 38.1602 17.707 37.9922 17.7578C37.8242 17.8047 37.6426 17.8691 37.4473 17.9512C37.3457 17.998 37.2832 18.0215 37.2598 18.0215C37.1895 18.0215 37.1113 17.9688 37.0254 17.8633C36.9434 17.7578 36.8711 17.6367 36.8086 17.5C36.7461 17.3633 36.7148 17.2598 36.7148 17.1895C36.7148 17.0684 36.8008 16.9531 36.9727 16.8438C37.1484 16.7305 37.3887 16.6406 37.6934 16.5742C37.998 16.5039 38.3359 16.4688 38.707 16.4688C39.4883 16.4688 40.0566 16.625 40.4121 16.9375C40.7676 17.2461 40.9453 17.6699 40.9453 18.209V20.1602C40.9453 20.4844 40.9531 20.7363 40.9688 20.916C40.9883 21.0957 41.0137 21.2734 41.0449 21.4492C41.0645 21.5547 41.0742 21.6289 41.0742 21.6719C41.0742 21.75 41 21.8145 40.8516 21.8652C40.707 21.916 40.541 21.9531 40.3535 21.9766C40.166 22 40.0156 22.0117 39.9023 22.0117C39.7812 22.0117 39.6934 21.9609 39.6387 21.8594C39.5879 21.7539 39.5469 21.6113 39.5156 21.4316C39.5117 21.4082 39.5078 21.3848 39.5039 21.3613C39.5 21.3379 39.4941 21.3145 39.4863 21.291C39.4473 21.3652 39.3633 21.4648 39.2344 21.5898C39.1094 21.7148 38.9375 21.8301 38.7188 21.9355C38.5 22.0371 38.2461 22.0879 37.957 22.0879ZM38.4668 20.8633C38.6621 20.8633 38.8457 20.8027 39.0176 20.6816C39.1895 20.5566 39.3184 20.3984 39.4043 20.207V19.6328C38.4316 19.6328 37.9453 19.8887 37.9453 20.4004C37.9453 20.5371 37.9902 20.6484 38.0801 20.7344C38.1738 20.8203 38.3027 20.8633 38.4668 20.8633Z" fill="#213548"/>
<path d="M43.4531 24.1504C43.0352 24.1504 42.8262 24.0762 42.8262 23.9277C42.8262 23.8691 42.8398 23.8066 42.8672 23.7402L43.5293 22L41.8066 16.9492C41.8027 16.9258 41.7949 16.8945 41.7832 16.8555C41.7715 16.8125 41.7656 16.7812 41.7656 16.7617C41.7656 16.6836 41.8164 16.627 41.918 16.5918C42.0195 16.5527 42.1797 16.5332 42.3984 16.5332H42.7383C42.9023 16.5332 43.0332 16.5508 43.1309 16.5859C43.2324 16.6172 43.2949 16.6719 43.3184 16.75L43.9277 18.6719C43.9668 18.793 44.0156 18.9883 44.0742 19.2578C44.1328 19.5234 44.168 19.6816 44.1797 19.7324L44.2207 19.9316H44.2676C44.2715 19.9043 44.2812 19.8633 44.2969 19.8086C44.4258 19.1836 44.5137 18.8047 44.5605 18.6719L45.1699 16.75C45.1973 16.668 45.2598 16.6113 45.3574 16.5801C45.459 16.5488 45.5918 16.5332 45.7559 16.5332H46.0078C46.2227 16.5332 46.3789 16.5527 46.4766 16.5918C46.5781 16.627 46.6289 16.6836 46.6289 16.7617C46.6289 16.8008 46.6191 16.8633 46.5996 16.9492L44.209 23.9277C44.1582 24.0762 43.9648 24.1504 43.6289 24.1504H43.4531Z" fill="#213548"/>
<path d="M53.3027 16.4688C53.8223 16.4688 54.2051 16.6055 54.4512 16.8789C54.7012 17.1523 54.8262 17.5762 54.8262 18.1504V21.6895C54.8262 21.9082 54.6152 22.0176 54.1934 22.0176H53.9062C53.4922 22.0176 53.2852 21.9082 53.2852 21.6895V18.3848C53.2852 18.1738 53.2363 18.0137 53.1387 17.9043C53.0449 17.7949 52.8867 17.7402 52.6641 17.7402C52.4688 17.7402 52.3027 17.8008 52.166 17.9219C52.0332 18.0391 51.9258 18.1758 51.8438 18.332V21.6895C51.8438 21.9082 51.6348 22.0176 51.2168 22.0176H50.9238C50.5098 22.0176 50.3027 21.9082 50.3027 21.6895V18.3848C50.3027 18.1738 50.2539 18.0137 50.1562 17.9043C50.0625 17.7949 49.9062 17.7402 49.6875 17.7402C49.5 17.7402 49.334 17.8027 49.1895 17.9277C49.0488 18.0527 48.9414 18.1914 48.8672 18.3438V21.6895C48.8672 21.9082 48.6562 22.0176 48.2344 22.0176H47.9473C47.5332 22.0176 47.3262 21.9082 47.3262 21.6895V18.3848C47.3262 17.8848 47.293 17.4688 47.2266 17.1367C47.207 17.0312 47.1973 16.957 47.1973 16.9141C47.1973 16.8359 47.2695 16.7734 47.4141 16.7266C47.5625 16.6758 47.7285 16.6387 47.9121 16.6152C48.0996 16.5918 48.25 16.5801 48.3633 16.5801C48.4844 16.5801 48.5684 16.625 48.6152 16.7148C48.666 16.8047 48.7109 16.9355 48.75 17.1074L48.7852 17.2598C48.9492 17.0371 49.168 16.8496 49.4414 16.6973C49.7148 16.5449 50.0098 16.4688 50.3262 16.4688C50.6855 16.4688 50.9766 16.5332 51.1992 16.6621C51.4258 16.791 51.5918 16.9902 51.6973 17.2598C51.873 17.0371 52.1035 16.8496 52.3887 16.6973C52.6738 16.5449 52.9785 16.4688 53.3027 16.4688Z" fill="#213548"/>
<path d="M58.6699 22.0879C57.7559 22.0879 57.0742 21.8438 56.625 21.3555C56.1758 20.8633 55.9512 20.1816 55.9512 19.3105C55.9512 18.3301 56.1758 17.6113 56.625 17.1543C57.0742 16.6973 57.6934 16.4688 58.4824 16.4688C59.0059 16.4688 59.4336 16.5879 59.7656 16.8262C60.1016 17.0645 60.3457 17.3848 60.498 17.7871C60.6543 18.1895 60.7324 18.6445 60.7324 19.1523C60.7324 19.2109 60.6973 19.2891 60.627 19.3867C60.5605 19.4844 60.4844 19.5723 60.3984 19.6504C60.3125 19.7285 60.2461 19.7676 60.1992 19.7676H57.5449C57.5801 20.166 57.6973 20.4492 57.8965 20.6172C58.0996 20.7812 58.3809 20.8633 58.7402 20.8633C58.9355 20.8633 59.1113 20.8418 59.2676 20.7988C59.4277 20.752 59.5977 20.6914 59.7773 20.6172C59.8867 20.5664 59.9609 20.541 60 20.541C60.0703 20.541 60.1465 20.5918 60.2285 20.6934C60.3145 20.791 60.3867 20.9043 60.4453 21.0332C60.5078 21.1621 60.5391 21.2617 60.5391 21.332C60.5391 21.4922 60.4297 21.6289 60.2109 21.7422C59.9961 21.8555 59.7402 21.9414 59.4434 22C59.1504 22.0586 58.8926 22.0879 58.6699 22.0879ZM59.2324 18.7422C59.2324 18.4219 59.1699 18.166 59.0449 17.9746C58.9199 17.7793 58.7324 17.6816 58.4824 17.6816C57.9668 17.6816 57.6543 18.0352 57.5449 18.7422H59.2324Z" fill="#213548"/>
<path d="M62.4082 22.0176C61.9941 22.0176 61.7871 21.9082 61.7871 21.6895V18.3848C61.7871 17.8848 61.7539 17.4688 61.6875 17.1367C61.668 17.0312 61.6582 16.957 61.6582 16.9141C61.6582 16.8359 61.7305 16.7734 61.875 16.7266C62.0234 16.6758 62.1895 16.6387 62.373 16.6152C62.5605 16.5918 62.7109 16.5801 62.8242 16.5801C62.9453 16.5801 63.0293 16.625 63.0762 16.7148C63.127 16.8047 63.1719 16.9355 63.2109 17.1074L63.2461 17.2598C63.4102 17.041 63.6289 16.8555 63.9023 16.7031C64.1797 16.5469 64.4766 16.4688 64.793 16.4688C65.3164 16.4688 65.7031 16.6055 65.9531 16.8789C66.2031 17.1523 66.3281 17.5762 66.3281 18.1504V21.6895C66.3281 21.9082 66.1172 22.0176 65.6953 22.0176H65.4082C64.9941 22.0176 64.7871 21.9082 64.7871 21.6895V18.3848C64.7871 18.1738 64.7363 18.0137 64.6348 17.9043C64.5371 17.7949 64.377 17.7402 64.1543 17.7402C63.9668 17.7402 63.8008 17.8027 63.6562 17.9277C63.5117 18.0527 63.4023 18.1914 63.3281 18.3438V21.6895C63.3281 21.9082 63.1172 22.0176 62.6953 22.0176H62.4082Z" fill="#213548"/>
<path d="M69.2637 22.0879C68.7676 22.0879 68.3887 21.9492 68.127 21.6719C67.8691 21.3906 67.7402 20.9648 67.7402 20.3945V17.7695H67.5762C67.4668 17.7695 67.3867 17.7285 67.3359 17.6465C67.2891 17.5645 67.2656 17.4316 67.2656 17.248V17.0723C67.2656 16.8887 67.2891 16.7559 67.3359 16.6738C67.3867 16.5918 67.4668 16.5508 67.5762 16.5508H67.7402L67.875 15.5605C67.9062 15.3418 68.0938 15.2324 68.4375 15.2324H68.7656C68.9453 15.2324 69.0762 15.2598 69.1582 15.3145C69.2441 15.3691 69.2871 15.4512 69.2871 15.5605V16.5508H69.7969C69.9062 16.5508 69.9844 16.5918 70.0312 16.6738C70.082 16.7559 70.1074 16.8887 70.1074 17.0723V17.248C70.1074 17.4316 70.082 17.5645 70.0312 17.6465C69.9844 17.7285 69.9062 17.7695 69.7969 17.7695H69.2871V20.4121C69.2871 20.5723 69.3145 20.6875 69.3691 20.7578C69.4277 20.8281 69.5234 20.8633 69.6562 20.8633C69.6953 20.8633 69.748 20.8574 69.8145 20.8457C69.8809 20.8301 69.9219 20.8223 69.9375 20.8223C70 20.8223 70.0547 20.875 70.1016 20.9805C70.1523 21.082 70.1914 21.1953 70.2188 21.3203C70.25 21.4453 70.2656 21.5293 70.2656 21.5723C70.2656 21.916 69.9316 22.0879 69.2637 22.0879Z" fill="#213548"/>
<path d="M72.5625 22.0879C72.293 22.0879 72.0254 22.0586 71.7598 22C71.4941 21.9414 71.2734 21.8574 71.0977 21.748C70.9258 21.6387 70.8398 21.5137 70.8398 21.373C70.8398 21.2871 70.8711 21.1797 70.9336 21.0508C70.9961 20.9219 71.0703 20.8105 71.1562 20.7168C71.2461 20.6191 71.3242 20.5703 71.3906 20.5703C71.4258 20.5703 71.502 20.5977 71.6191 20.6523C71.7559 20.7148 71.8867 20.7656 72.0117 20.8047C72.1367 20.8438 72.2793 20.8633 72.4395 20.8633C72.6387 20.8633 72.7891 20.8262 72.8906 20.752C72.9922 20.6777 73.043 20.5684 73.043 20.4238C73.043 20.3145 73.0117 20.2246 72.9492 20.1543C72.8906 20.0801 72.8145 20.0195 72.7207 19.9727C72.627 19.9258 72.4941 19.8691 72.3223 19.8027L72.1523 19.7383C71.9297 19.6523 71.7344 19.5547 71.5664 19.4453C71.3984 19.3359 71.2559 19.1777 71.1387 18.9707C71.0215 18.7598 70.9629 18.4941 70.9629 18.1738C70.9629 17.8184 71.0391 17.5137 71.1914 17.2598C71.3477 17.002 71.5684 16.8066 71.8535 16.6738C72.1387 16.5371 72.4746 16.4688 72.8613 16.4688C73.084 16.4688 73.3164 16.4902 73.5586 16.5332C73.8008 16.5762 74.0039 16.6426 74.168 16.7324C74.3359 16.8223 74.4199 16.9355 74.4199 17.0723C74.4199 17.1504 74.3945 17.2559 74.3438 17.3887C74.2969 17.5215 74.2383 17.6387 74.168 17.7402C74.0977 17.8418 74.0312 17.8926 73.9688 17.8926C73.9492 17.8926 73.8945 17.875 73.8047 17.8398C73.6836 17.7891 73.5664 17.75 73.4531 17.7227C73.3438 17.6914 73.2168 17.6758 73.0723 17.6758C72.7051 17.6758 72.5215 17.7969 72.5215 18.0391C72.5215 18.1484 72.5547 18.2422 72.6211 18.3203C72.6914 18.3984 72.7773 18.4629 72.8789 18.5137C72.9805 18.5645 73.123 18.625 73.3066 18.6953C73.5176 18.7812 73.6484 18.8359 73.6992 18.8594C73.9727 18.9961 74.1914 19.1777 74.3555 19.4043C74.5234 19.627 74.6074 19.9258 74.6074 20.3008C74.6074 20.6562 74.5273 20.9688 74.3672 21.2383C74.207 21.5078 73.9727 21.7168 73.6641 21.8652C73.3555 22.0137 72.9883 22.0879 72.5625 22.0879Z" fill="#213548"/>
<circle cx="12" cy="12" r="12" fill="#213548"/>
<path fill-rule="evenodd" clip-rule="evenodd" d="M9 4H11V6.12236C11.4459 6.04079 11.9291 6 12.4495 6C12.6306 6 12.8141 6.00671 13 6.02012V4H15V6.43031C15.1141 6.47515 15.2211 6.52324 15.3211 6.57457C15.682 6.75039 15.8624 6.94819 15.8624 7.16797C15.8624 7.32496 15.8012 7.53218 15.6789 7.78964C15.5566 8.04082 15.4098 8.26374 15.2385 8.4584C15.0734 8.65306 14.9266 8.75039 14.7982 8.75039C14.7676 8.75039 14.685 8.719 14.5505 8.6562C14.2569 8.53061 13.948 8.427 13.6239 8.34537C13.3058 8.25746 12.8991 8.2135 12.4037 8.2135C11.4434 8.2135 10.7309 8.52747 10.2661 9.15542C9.80734 9.77708 9.57798 10.719 9.57798 11.9812C9.57798 13.2433 9.8104 14.1947 10.2752 14.8352C10.7401 15.4757 11.4373 15.7959 12.367 15.7959C12.8502 15.7959 13.2691 15.7457 13.6239 15.6452C13.9847 15.5447 14.3364 15.416 14.6789 15.259C14.6972 15.2527 14.7523 15.2308 14.844 15.1931C14.9358 15.1491 15.0031 15.1272 15.0459 15.1272C15.2049 15.1272 15.3578 15.2245 15.5046 15.4192C15.6514 15.6075 15.7706 15.8242 15.8624 16.0691C15.9541 16.3077 16 16.4804 16 16.5871C16 16.8948 15.7982 17.1554 15.3945 17.3689C15.2712 17.4351 15.1397 17.4962 15 17.5521V20H13V17.9737C12.7826 17.9912 12.5716 18 12.367 18C11.8771 18 11.4214 17.9651 11 17.8953V20H9V17.1408C8.74099 16.9645 8.50858 16.7611 8.30275 16.5306C7.43425 15.551 7 14.0283 7 11.9623C7 9.55431 7.66667 7.87569 9 6.92647V4Z" fill="white"/>
</svg>
