<svg width="46" height="18" viewBox="0 0 46 18" fill="none" xmlns="http://www.w3.org/2000/svg">
<path d="M21.4356 8.7937V14.07H19.7617V1.03994H24.2011C24.731 1.02887 25.2578 1.12285 25.7512 1.31646C26.2446 1.51007 26.6947 1.79947 27.0757 2.16797C27.4605 2.51409 27.7668 2.93857 27.9739 3.41289C28.181 3.8872 28.2842 4.40035 28.2765 4.91786C28.2875 5.43813 28.1859 5.95464 27.9787 6.43197C27.7714 6.90931 27.4634 7.33619 27.0757 7.68335C26.2994 8.42358 25.3412 8.79336 24.2011 8.79266H21.4356V8.7937ZM21.4356 2.64413V7.19263H24.2426C24.5504 7.20175 24.8566 7.14654 25.1418 7.03054C25.427 6.91453 25.6848 6.74028 25.8988 6.51893C26.1117 6.31198 26.2809 6.06444 26.3964 5.79095C26.512 5.51747 26.5715 5.22359 26.5715 4.9267C26.5715 4.62981 26.512 4.33593 26.3964 4.06244C26.2809 3.78896 26.1117 3.54142 25.8988 3.33446C25.6875 3.10845 25.4306 2.92993 25.1451 2.81073C24.8595 2.69154 24.5519 2.6344 24.2426 2.64309H21.4356V2.64413Z" fill="#213548"/>
<path d="M32.1362 4.86328C33.3734 4.86328 34.3499 5.19389 35.0659 5.85511C35.7819 6.51634 36.1395 7.42292 36.1388 8.57486V14.0694H34.5378V12.8323H34.465C33.7719 13.8511 32.8501 14.3606 31.6995 14.3606C30.7174 14.3606 29.8957 14.0694 29.2345 13.4872C28.9172 13.22 28.6635 12.8854 28.4919 12.5077C28.3203 12.13 28.2351 11.7187 28.2426 11.304C28.2426 10.3814 28.5913 9.64778 29.2885 9.103C29.9858 8.55822 30.9166 8.28514 32.0811 8.28375C33.075 8.28375 33.8935 8.46569 34.5367 8.82957V8.44698C34.5386 8.16421 34.4776 7.88456 34.358 7.62832C34.2384 7.37207 34.0633 7.14565 33.8454 6.96547C33.4027 6.56611 32.8259 6.34821 32.2297 6.35519C31.2947 6.35519 30.5548 6.74957 30.0101 7.53832L28.5358 6.60991C29.3468 5.44549 30.5469 4.86328 32.1362 4.86328ZM29.9706 11.3403C29.9694 11.5534 30.0192 11.7636 30.1158 11.9535C30.2124 12.1434 30.3529 12.3074 30.5257 12.432C30.8959 12.7232 31.3554 12.8775 31.8263 12.8686C32.5327 12.8675 33.2097 12.5863 33.7092 12.0868C34.2636 11.5649 34.5409 10.9526 34.5409 10.2497C34.019 9.83388 33.2912 9.62595 32.3576 9.62595C31.6777 9.62595 31.1107 9.78987 30.6567 10.1177C30.1982 10.4504 29.9706 10.8548 29.9706 11.3403V11.3403Z" fill="#213548"/>
<path d="M45.3283 5.1543L39.7391 17.9993H38.0112L40.0853 13.5048L36.4102 5.1543H38.2296L40.8859 11.5586H40.9223L43.5058 5.1543H45.3283Z" fill="#213548"/>
<path d="M14.6726 7.65682C14.6732 7.14672 14.6301 6.6375 14.5436 6.13477H7.48438V9.01774H11.5276C11.4449 9.47819 11.2697 9.91712 11.0128 10.3081C10.7559 10.699 10.4224 11.0339 10.0326 11.2925V13.1639H12.4456C13.8585 11.8612 14.6726 9.93471 14.6726 7.65682Z" fill="#213548"/>
<path d="M7.48499 14.9709C9.50504 14.9709 11.2059 14.3076 12.4462 13.1639L10.0332 11.2925C9.36157 11.7479 8.49658 12.0078 7.48499 12.0078C5.53251 12.0078 3.8753 10.6916 3.2827 8.91797H0.796875V10.8465C1.41991 12.0863 2.37526 13.1285 3.55627 13.8568C4.73728 14.5851 6.09748 14.9708 7.48499 14.9709V14.9709Z" fill="#4D6982"/>
<path d="M3.2829 8.91886C2.96961 7.98945 2.96961 6.98297 3.2829 6.05356V4.125H0.797076C0.27296 5.16794 0 6.31899 0 7.48621C0 8.65344 0.27296 9.80449 0.797076 10.8474L3.2829 8.91886Z" fill="#61819E"/>
<path d="M7.48499 2.96351C8.5525 2.94607 9.58399 3.34941 10.3565 4.08634L12.493 1.94985C11.1383 0.677387 9.3435 -0.0212159 7.48499 0.000491121C6.09748 0.000554358 4.73728 0.386261 3.55627 1.11455C2.37526 1.84284 1.41991 2.88504 0.796875 4.12481L3.2827 6.05338C3.8753 4.27972 5.53251 2.96351 7.48499 2.96351Z" fill="#7A94AC"/>
</svg>
