<svg width="44" height="51" viewBox="0 0 44 51" fill="none" xmlns="http://www.w3.org/2000/svg">
<path d="M21.62 48.9598C18.9 48.9598 16.27 48.4298 13.79 47.3798C11.39 46.3698 9.24 44.9198 7.39 43.0698C5.54 41.2198 4.09 39.0698 3.08 36.6698C2.03 34.1898 1.5 31.5498 1.5 28.8398V8.29984L21.62 1.58984L41.74 8.29984V28.8298C41.74 31.5498 41.21 34.1798 40.16 36.6598C39.15 39.0598 37.7 41.2098 35.85 43.0598C34 44.9098 31.85 46.3598 29.45 47.3698C26.98 48.4198 24.34 48.9598 21.62 48.9598Z" fill="#00D66B"/>
<path d="M21.62 3.16L3 9.37V28.83C3 33.81 4.94 38.48 8.45 42C11.96 45.52 16.64 47.45 21.62 47.45C26.6 47.45 31.28 45.52 34.79 42C38.3 38.48 40.24 33.81 40.24 28.83V9.37L21.62 3.16ZM21.62 0L43.24 7.21V28.83C43.24 40.77 33.56 50.45 21.62 50.45C9.68 50.45 0 40.78 0 28.83V7.21L21.62 0Z" fill="#06ED68"/>
<path d="M19.96 33.11L12 25.08L14.68 22.43L19.99 27.78L29.36 18.5L32.01 21.18L19.96 33.11Z" fill="#EEFAFF"/>
</svg>
