<svg width="80" height="71" viewBox="0 0 80 71" fill="none" xmlns="http://www.w3.org/2000/svg">
<path d="M79.8 50.1H0V4.5C0 2 2 0 4.5 0H75.3C77.8 0 79.8 2 79.8 4.5V50.1Z" fill="#9ACDFB"/>
<path d="M75.3 59.5002H4.5C2 59.5002 0 57.5002 0 55.0002V50.2002H79.8V55.0002C79.8 57.5002 77.8 59.5002 75.3 59.5002Z" fill="#C2E1FD"/>
<path d="M41.6996 54.3C41.6996 53.3 40.8996 52.5 39.8996 52.5C38.8996 52.5 38.0996 53.3 38.0996 54.3C38.0996 55.3 38.8996 56.1 39.8996 56.1C40.8996 56.1 41.6996 55.3 41.6996 54.3Z" fill="#9ACDFB"/>
<path d="M49.5996 69.4C43.0996 69.4 36.5996 69.4 30.0996 69.4C32.1996 66.7 32.8996 64.7 32.8996 59.5C37.5996 59.5 42.1996 59.5 46.8996 59.5C46.8996 64.5 47.5996 66.7 49.5996 69.4Z" fill="#C2E1FD"/>
<path d="M51.3996 71.0004H28.3996C27.9996 71.0004 27.5996 70.6004 27.5996 70.2004C27.5996 69.8004 27.9996 69.4004 28.3996 69.4004H51.4996C51.8996 69.4004 52.2996 69.8004 52.2996 70.2004C52.1996 70.6004 51.8996 71.0004 51.3996 71.0004Z" fill="#9ACDFB"/>
<path d="M46.9988 62.9C46.8988 61.9 46.7988 60.8 46.7988 59.5C42.0988 59.5 37.4988 59.5 32.7988 59.5C32.7988 61.9 32.6988 63.6 32.2988 65L46.9988 62.9Z" fill="#9ACDFB"/>
<path d="M75.9004 3.7002H3.90039V46.4002H75.9004V3.7002Z" fill="#E0F6FF"/>
<path d="M19.5992 6.7998H13.0992H6.69922V13.1998V19.5998L10.5992 15.6998L15.6992 20.7998L20.7992 15.6998L15.6992 10.6998L19.5992 6.7998Z" fill="#F88A9A"/>
<path d="M66.7992 6.7998H60.3992L64.2992 10.6998L59.1992 15.6998L64.2992 20.7998L69.3992 15.6998L73.2992 19.5998V13.1998V6.7998H66.7992Z" fill="#F88A9A"/>
<path d="M15.6992 30.0996L10.5992 35.1996L6.69922 31.2996V37.6996V44.1996H13.0992H19.5992L15.6992 40.2996L20.7992 35.1996L15.6992 30.0996Z" fill="#F88A9A"/>
<path d="M69.3992 35.1996L64.2992 30.0996L59.1992 35.1996L64.2992 40.2996L60.3992 44.1996H66.7992H73.2992V37.6996V31.2996L69.3992 35.1996Z" fill="#F88A9A"/>
<path d="M34.4004 16.5V36.1H28.9004V16.5H34.4004Z" fill="#385D7E"/>
<path d="M52.2 26.2C51.7 27.2 50.8 28 49.7 28.5C48.6 29.1 47.2 29.4 45.7 29.4H43V36H37.5V16.5H45.7C47.3 16.5 48.6 16.8 49.7 17.3C50.8 17.9 51.6 18.6 52.2 19.6C52.8 20.6 53 21.7 53 23C53 24.2 52.7 25.3 52.2 26.2ZM47.4 23C47.4 21.6 46.6 20.9 45.1 20.9H43V25.2H45.2C46.7 25.1 47.4 24.4 47.4 23Z" fill="#385D7E"/>
</svg>
