<svg width="78" height="80" viewBox="0 0 78 80" fill="none" xmlns="http://www.w3.org/2000/svg">
<path d="M67.3566 79.6156C63.6566 79.6156 59.1566 78.4156 53.9566 75.9156C44.9566 71.7156 34.9566 64.2156 25.6566 55.0156C24.8566 54.2156 24.8566 52.9156 25.6566 52.1156C26.4566 51.3156 27.7566 51.3156 28.5566 52.1156C47.8566 71.4156 66.9566 79.1156 72.0566 74.0156C72.8566 73.2156 74.1566 73.2156 74.9566 74.0156C75.7566 74.8156 75.7566 76.1156 74.9566 76.9156C73.0566 78.7156 70.5566 79.6156 67.3566 79.6156Z" fill="#385D7E"/>
<path d="M50.4566 28.1161C49.9566 28.1161 49.4566 27.9161 49.0566 27.5161C40.1566 18.6161 30.4566 11.4161 21.9566 7.41607C14.1566 3.71607 8.05664 3.11607 5.55664 5.61607C4.75664 6.41607 3.45664 6.41607 2.65664 5.61607C1.85664 4.81607 1.85664 3.51607 2.65664 2.71607C6.55664 -1.18393 14.0566 -0.883929 23.6566 3.61607C32.6566 7.81607 42.6566 15.3161 51.9566 24.5161C52.7566 25.3161 52.7566 26.6161 51.9566 27.4161C51.4566 27.9161 50.9566 28.1161 50.4566 28.1161Z" fill="#F66D81"/>
<path d="M73.0566 41.6152C73.0566 52.9152 67.5566 63.0152 59.1566 69.3152C53.3566 73.6152 46.2566 76.1152 38.5566 76.1152C30.4566 76.1152 22.9566 73.3152 17.0566 68.6152C9.15664 62.3152 4.05664 52.5152 4.05664 41.6152C4.05664 30.3152 9.55664 20.2152 17.9566 13.9152C23.7566 9.61523 30.8566 7.11523 38.5566 7.11523C46.6566 7.11523 54.1566 9.91524 60.0566 14.6152C68.0566 20.9152 73.0566 30.7152 73.0566 41.6152Z" fill="#E0F6FF"/>
<path d="M38.557 78.1156C30.257 78.1156 22.157 75.3156 15.757 70.1156C7.05703 63.1156 1.95703 52.7156 1.95703 41.5156C1.95703 29.8156 7.35703 19.2156 16.657 12.2156C22.957 7.51562 30.557 5.01562 38.457 5.01562C46.757 5.01562 54.857 7.81563 61.257 13.0156C69.957 20.0156 75.057 30.4156 75.057 41.6156C75.057 53.2156 69.657 63.9156 60.357 70.9156C54.057 75.6156 46.557 78.1156 38.557 78.1156ZM38.557 9.11563C31.457 9.11563 24.757 11.3156 19.157 15.5156C10.857 21.7156 6.05703 31.2156 6.05703 41.6156C6.05703 51.5156 10.557 60.8156 18.257 67.0156C24.057 71.6156 31.057 74.1156 38.557 74.1156C45.657 74.1156 52.357 71.9156 57.957 67.7156C66.257 61.5156 71.057 52.0156 71.057 41.6156C71.057 31.7156 66.557 22.4156 58.857 16.2156C53.057 11.5156 46.057 9.11563 38.557 9.11563Z" fill="#9ACDFB"/>
<path d="M37.857 77.0156C37.357 77.0156 36.757 76.8156 36.357 76.5156C25.657 67.9156 19.457 55.1156 19.457 41.4156C19.457 34.2156 21.157 27.3156 24.357 20.9156C27.457 14.8156 32.057 9.51562 37.457 5.41562C38.357 4.71562 39.557 4.71562 40.457 5.41562C51.357 13.9156 57.557 26.7156 57.557 40.5156C57.557 54.7156 50.757 68.1156 39.257 76.5156C38.957 76.8156 38.457 77.0156 37.857 77.0156ZM38.957 10.5156C29.657 18.1156 24.357 29.2156 24.357 41.3156C24.357 52.9156 29.257 63.7156 37.957 71.3156C47.257 63.8156 52.657 52.4156 52.657 40.5156C52.757 28.9156 47.757 18.0156 38.957 10.5156Z" fill="#9ACDFB"/>
<path d="M38.5559 78.1156C26.8559 78.1156 16.2559 72.7156 9.25586 63.4156C8.75586 62.7156 8.75586 61.7156 9.25586 61.0156C16.1559 52.1156 26.5559 47.0156 37.8559 47.0156C49.3559 47.0156 60.3559 52.6156 67.1559 61.9156C67.6559 62.6156 67.6559 63.6156 67.0559 64.3156C60.1559 73.1156 49.7559 78.1156 38.5559 78.1156ZM13.4559 62.3156C19.6559 69.9156 28.7559 74.2156 38.5559 74.2156C47.9559 74.2156 56.7559 70.2156 62.9559 63.2156C56.8559 55.7156 47.5559 51.2156 37.8559 51.2156C28.4559 51.1156 19.5559 55.1156 13.4559 62.3156Z" fill="#9ACDFB"/>
<path d="M39.2551 36.2152C27.7551 36.2152 16.7552 30.6152 9.95515 21.3152C9.45515 20.6152 9.45515 19.6152 10.0552 18.9152C17.0552 10.2152 27.4552 5.11523 38.6552 5.11523C50.2551 5.11523 60.9552 10.5152 67.9552 19.8152C68.4552 20.5152 68.4552 21.5152 67.9552 22.2152C60.8552 31.1152 50.4552 36.2152 39.2551 36.2152ZM14.1551 20.1152C20.2551 27.6152 29.5551 32.1152 39.2551 32.1152C48.7551 32.1152 57.5552 28.0152 63.6552 20.9152C57.4552 13.4152 48.3551 9.11523 38.5551 9.11523C29.1551 9.11523 20.3552 13.1152 14.1551 20.1152Z" fill="#9ACDFB"/>
<path d="M38.5566 78.1152C37.4566 78.1152 36.5566 77.2152 36.5566 76.1152V7.11523C36.5566 6.01523 37.4566 5.11523 38.5566 5.11523C39.6566 5.11523 40.5566 6.01523 40.5566 7.11523V76.2152C40.5566 77.2152 39.6566 78.1152 38.5566 78.1152Z" fill="#9ACDFB"/>
<path d="M25.9561 52.5152C25.4561 52.5152 24.9561 52.3152 24.5561 51.9152C15.2561 42.7152 7.85612 32.6152 3.65612 23.7152C-0.843877 14.1152 -1.24388 6.71523 2.75612 2.71523C3.55612 1.91523 4.85612 1.91523 5.65612 2.71523C6.45612 3.51523 6.45612 4.81523 5.65612 5.61523C0.456123 10.7152 8.15612 29.8152 27.4561 49.0152C28.2561 49.8152 28.2561 51.1152 27.4561 51.9152C27.0561 52.3152 26.5561 52.5152 25.9561 52.5152Z" fill="#F66D81"/>
<path d="M25.5555 42.6152L17.3555 49.8152L30.3555 55.6152L25.5555 42.6152Z" fill="#F66D81"/>
<path d="M73.4563 77.5152C72.9563 77.5152 72.4562 77.3152 72.0562 76.9152C71.2563 76.1152 71.2563 74.8152 72.0562 74.0152C74.5562 71.5152 73.9563 65.4152 70.3563 57.7152C66.3563 49.2152 59.1562 39.5152 50.2563 30.6152C49.4563 29.8152 49.4563 28.5152 50.2563 27.7152C51.0563 26.9152 52.3563 26.9152 53.1563 27.7152C62.3563 37.0152 69.7563 47.0152 73.9563 55.9152C78.4563 65.5152 78.8563 72.9152 74.8563 76.9152C74.5563 77.3152 73.9563 77.5152 73.4563 77.5152Z" fill="#385D7E"/>
<path d="M48.0555 33.5156L56.2555 26.3156L43.3555 20.5156L48.0555 33.5156Z" fill="#385D7E"/>
</svg>
