<svg width="80" height="80" viewBox="0 0 80 80" fill="none" xmlns="http://www.w3.org/2000/svg">
<path d="M36.5098 39.8997L19.6855 56.7334L23.2928 60.3386L40.117 43.5049L36.5098 39.8997Z" fill="#385D7E"/>
<path d="M71.3004 48.9C60.1004 60.1 42.0004 60.1 30.8004 48.9C19.6004 37.7 19.6004 19.6 30.8004 8.4C42.0004 -2.8 60.1004 -2.8 71.3004 8.4C82.4004 19.6 82.4004 37.7 71.3004 48.9Z" fill="#9ACDFB"/>
<path d="M67.6 45.2996C58.4 54.4996 43.5 54.4996 34.4 45.2996C25.2 36.0996 25.2 21.1996 34.4 11.9996C43.6 2.79961 58.5 2.79961 67.7 11.9996C76.8 21.1996 76.8 36.0996 67.6 45.2996Z" fill="#C2E1FD"/>
<path d="M64 41.7002C56.8 48.9002 45.1 48.9002 37.9 41.7002C30.7 34.5002 30.7 22.8002 37.9 15.6002C45.1 8.4002 56.8 8.4002 64 15.6002C71.2 22.8002 71.2 34.5002 64 41.7002Z" fill="#E0F6FF"/>
<path d="M27.8 59.6996C27.8 61.5996 27.1 63.4996 25.6 64.9996L12.8 77.7996C12.1 78.4996 11.3 79.0996 10.4 79.3996C7.7 80.4996 4.4 79.9996 2.2 77.7996C0.7 76.2996 0 74.3996 0 72.4996C0 70.5996 0.7 68.6996 2.2 67.1996L13.9 55.4996L15 54.3996C17.9 51.4996 22.7 51.4996 25.6 54.3996C27.1 55.7996 27.8 57.7996 27.8 59.6996Z" fill="#9ACDFB"/>
<path d="M64.6008 26.0002C64.4008 28.0002 63.8008 29.8002 62.9008 31.4002C61.0008 35.4002 57.8008 39.3002 55.2008 42.1002C52.9008 44.6002 51.0008 46.2002 51.0008 46.2002C44.7008 40.2002 41.3008 35.4002 39.5008 32.0002C38.7008 30.7002 38.1008 29.3002 37.8008 27.8002C37.2008 25.8002 37.5008 24.8002 37.5008 24.8002C37.5008 18.8002 41.4008 13.7002 46.7008 11.9002C48.1008 11.4002 49.5008 11.2002 51.1008 11.2002C58.6008 11.2002 64.7008 17.3002 64.7008 24.8002C64.6008 25.1002 64.6008 25.6002 64.6008 26.0002Z" fill="#F88A9A"/>
<path d="M55.2008 42.1004C52.9008 44.6004 51.0008 46.2004 51.0008 46.2004C44.7008 40.2004 41.3008 35.4004 39.5008 32.0004C38.7008 30.7004 38.1008 29.3004 37.8008 27.8004C37.2008 25.8004 37.5008 24.8004 37.5008 24.8004C37.5008 18.8004 41.4008 13.7004 46.7008 11.9004C45.1008 15.8004 41.8008 28.4004 55.2008 42.1004Z" fill="#F66D81"/>
<path d="M51.0283 33.1001C55.8884 33.0845 59.8157 29.132 59.8001 24.2719C59.7845 19.4118 55.832 15.4845 50.9719 15.5001C46.1118 15.5157 42.1845 19.4682 42.2001 24.3283C42.2157 29.1884 46.1682 33.1157 51.0283 33.1001Z" fill="#385D7E"/>
<path d="M10.4 79.4C7.7 80.5 4.4 80 2.2 77.8C0.7 76.3 0 74.4 0 72.5C0 70.6 0.7 68.7 2.2 67.2L13.9 55.5C9.1 61 3.9 70 10.4 79.4Z" fill="#C2E1FD"/>
</svg>
