<svg width="80" height="69" viewBox="0 0 80 69" fill="none" xmlns="http://www.w3.org/2000/svg">
<path d="M6.6 68.1C3 68.1 0 65.6 0 62.5V5.6C0 2.5 3 0 6.6 0H73.2C76.9 0 79.8 2.5 79.8 5.6V62.4C79.8 65.5 76.8 68 73.2 68L6.6 68.1Z" fill="#9ACDFB"/>
<path d="M0 62.4996C0 65.5996 3 68.0996 6.6 68.0996H73.2C76.9 68.0996 79.8 65.5996 79.8 62.4996V34.0996H0V62.4996Z" fill="#C2E1FD"/>
<path d="M56.2996 6.7998H23.4996C17.4996 6.7998 12.5996 11.6998 12.5996 17.6998C12.5996 23.6998 17.4996 28.5998 23.4996 28.5998H56.1996C62.1996 28.5998 67.0996 23.6998 67.0996 17.6998C67.1996 11.6998 62.2996 6.7998 56.2996 6.7998Z" fill="#FAA7B3"/>
<path d="M23.4996 8.5998H56.1996C61.8996 8.5998 66.5996 12.9998 67.0996 18.5998C67.0996 18.2998 67.0996 17.9998 67.0996 17.6998C67.0996 11.6998 62.1996 6.7998 56.1996 6.7998H23.4996C17.4996 6.7998 12.5996 11.6998 12.5996 17.6998C12.5996 17.9998 12.5996 18.2998 12.5996 18.5998C13.0996 12.9998 17.7996 8.5998 23.4996 8.5998Z" fill="#F88A9A"/>
<path d="M34.4992 17.6998C34.4992 23.6998 29.5992 28.5998 23.5992 28.5998C17.5992 28.5998 12.6992 23.6998 12.6992 17.6998C12.6992 11.6998 17.5992 6.7998 23.5992 6.7998C29.5992 6.7998 34.4992 11.6998 34.4992 17.6998Z" fill="#385D7E"/>
<path d="M23.4996 39.5996H56.1996C62.1996 39.5996 67.0996 44.4996 67.0996 50.4996C67.0996 56.4996 62.1996 61.3996 56.1996 61.3996H23.4996C17.4996 61.3996 12.5996 56.4996 12.5996 50.4996C12.5996 44.4996 17.4996 39.5996 23.4996 39.5996Z" fill="#E0F6FF"/>
<path d="M56.2996 41.3996H23.4996C17.7996 41.3996 13.0996 45.7996 12.5996 51.3996C12.5996 51.0996 12.5996 50.7996 12.5996 50.4996C12.5996 44.4996 17.4996 39.5996 23.4996 39.5996H56.1996C62.1996 39.5996 67.0996 44.4996 67.0996 50.4996C67.0996 50.7996 67.0996 51.0996 67.0996 51.3996C66.6996 45.7996 61.9996 41.3996 56.2996 41.3996Z" fill="#9ACDFB"/>
<path d="M45.4004 50.4996C45.4004 56.4996 50.3004 61.3996 56.3004 61.3996C62.3004 61.3996 67.2004 56.4996 67.2004 50.4996C67.2004 44.4996 62.3004 39.5996 56.3004 39.5996C50.2004 39.5996 45.4004 44.4996 45.4004 50.4996Z" fill="#385D7E"/>
</svg>
