<svg width="80" height="65" viewBox="0 0 80 65" fill="none" xmlns="http://www.w3.org/2000/svg">
<path d="M79.8 50.1H0V4.5C0 2 2 0 4.5 0H75.2C77.7 0 79.7 2 79.7 4.5V50.1H79.8Z" fill="#9ACDFB"/>
<path d="M75.3 59.5002H4.5C2 59.5002 0 57.5002 0 55.0002V50.2002H79.8V55.0002C79.8 57.4002 77.7 59.5002 75.3 59.5002Z" fill="#C2E1FD"/>
<path d="M41.6 54.3C41.6 53.3 40.8 52.5 39.8 52.5C38.8 52.5 38 53.3 38 54.3C38 55.3 38.8 56.1 39.8 56.1C40.9 56.1 41.6 55.3 41.6 54.3Z" fill="#9ACDFB"/>
<path d="M75.9004 3.7002H3.90039V46.4002H75.9004V3.7002Z" fill="#E0F6FF"/>
<path d="M52.9997 22.2998C52.7997 24.1998 52.1997 25.9998 51.3997 27.5998C49.4997 31.4998 46.3997 35.2998 43.8997 37.9998C41.5997 40.3998 39.8997 41.9998 39.8997 41.9998C33.7997 35.9998 30.4997 31.3998 28.6997 27.9998C27.8997 26.7998 27.3997 25.3998 26.9997 23.8998C26.4997 21.8998 26.6997 20.9998 26.6997 20.9998C26.6997 15.1998 30.4997 10.2998 35.6997 8.4998C36.9997 7.9998 38.4997 7.7998 39.8997 7.7998C47.1997 7.7998 53.0997 13.6998 53.0997 20.9998C53.0997 21.4998 53.0997 21.8998 52.9997 22.2998Z" fill="#F88A9A"/>
<path d="M39.9266 29.1998C44.6763 29.1846 48.5143 25.3219 48.499 20.5722C48.4838 15.8226 44.6211 11.9846 39.8715 11.9998C35.1218 12.015 31.2838 15.8777 31.299 20.6273C31.3143 25.377 35.177 29.215 39.9266 29.1998Z" fill="#385D7E"/>
<path d="M79.8008 17.3V61.2C79.8008 63 78.3008 64.5 76.5008 64.5H49.1008C47.3008 64.5 45.8008 63 45.8008 61.2V17.3C45.8008 15.5 47.3008 14 49.1008 14H76.5008C78.3008 14.1 79.8008 15.5 79.8008 17.3Z" fill="#9ACDFB"/>
<path d="M50.4004 52.6998V21.4998C50.4004 20.2998 51.4004 19.2998 52.6004 19.2998H53.5004C53.9004 20.8998 55.4004 22.0998 57.1004 22.0998H68.3004C70.0004 22.0998 71.5004 20.8998 71.9004 19.2998H73.0004C74.2004 19.2998 75.2004 20.2998 75.2004 21.4998V52.5998C75.2004 53.7998 74.2004 54.7998 73.0004 54.7998H52.6004C51.4004 54.8998 50.4004 53.8998 50.4004 52.6998Z" fill="#E0F6FF"/>
<path d="M64.1 61.0998H61.4C60.7 61.0998 60 60.4998 60 59.6998C60 58.9998 60.6 58.2998 61.4 58.2998H64.1C64.8 58.2998 65.5 58.8998 65.5 59.6998C65.5 60.4998 64.9 61.0998 64.1 61.0998Z" fill="#C2E1FD"/>
<path d="M70.7008 37.3998C70.6008 38.4998 70.2008 39.5998 69.7008 40.5998C68.6008 42.8998 66.7008 45.1998 65.2008 46.7998C63.8008 48.2998 62.8008 49.1998 62.8008 49.1998C59.1008 45.6998 57.2008 42.8998 56.1008 40.8998C55.6008 40.1998 55.3008 39.2998 55.1008 38.4998C54.8008 37.2998 54.9008 36.6998 54.9008 36.6998C54.9008 33.1998 57.2008 30.2998 60.3008 29.1998C61.1008 28.8998 62.0008 28.7998 62.8008 28.7998C67.2008 28.7998 70.7008 32.2998 70.7008 36.6998C70.7008 36.8998 70.7008 37.0998 70.7008 37.3998Z" fill="#F88A9A"/>
<path d="M62.8182 41.5001C65.6349 41.491 67.9109 39.2004 67.9019 36.3837C67.8929 33.5671 65.6022 31.291 62.7855 31.3001C59.9689 31.3091 57.6929 33.5998 57.7019 36.4164C57.7109 39.2331 60.0016 41.5091 62.8182 41.5001Z" fill="#385D7E"/>
</svg>
